STARTFONT 2.1
FONT -Monotype-Times New Roman-Bold-I-Normal--50-360-100-100-P-292-iso8859-7
SIZE 36 100 100
FONTBOUNDINGBOX 64 54 -9 -11

STARTPROPERTIES 24
FOUNDRY "Monotype"
FAMILY_NAME "Times New Roman"
WEIGHT_NAME "Bold"
SLANT "I"
SETWIDTH_NAME "Normal"
ADD_STYLE_NAME ""
PIXEL_SIZE 50
POINT_SIZE 360
RESOLUTION_X 100
RESOLUTION_Y 100
SPACING "P"
AVERAGE_WIDTH 292
CHARSET_REGISTRY "iso8859"
CHARSET_ENCODING "7"
FACE_NAME "Times New Roman Bold Inclined ISO Latin Greek"
_DEC_DEVICE_FONTNAMES "PS=timesnewroman-bin-latgreek"
COPYRIGHT "Copyright (c) 1993 Monotype Typography Ltd."
CAP_HEIGHT 39
X_HEIGHT 26
WEIGHT 10
QUAD_WIDTH 30
DEFAULT_CHAR 160
FONT_DESCENT 13
FONT_ASCENT 45
ENDPROPERTIES

CHARS 185

STARTCHAR space
ENCODING 32
SWIDTH 250 0
DWIDTH 13 0
BBX 0 0 0 0
BITMAP
ENDCHAR

STARTCHAR exclam
ENCODING 33
SWIDTH 271 0
DWIDTH 14 0
BBX 19 36 -2 -1
BITMAP
000700
000F80
001F80
001F80
003F80
003F80
003F80
003F00
003F00
003E00
003E00
007C00
007C00
007800
007800
007000
007000
006000
006000
00E000
00C000
00C000
008000
008000
008000
010000
000000
000000
0F0000
1F8000
3FC000
3FC000
3FC000
3FC000
1F8000
0F0000
ENDCHAR

STARTCHAR quotedbl
ENCODING 34
SWIDTH 552 0
DWIDTH 28 0
BBX 23 16 5 18
BITMAP
0E00E0
1F01F0
3F83F8
3F83F8
3F83F8
3F83F8
3F83F8
1F01F0
1F01F0
1F01F0
1F01F0
0E00E0
0E00E0
0E00E0
0E00E0
040040
ENDCHAR

STARTCHAR numbersign
ENCODING 35
SWIDTH 667 0
DWIDTH 33 0
BBX 33 35 1 -4
BITMAP
001F00F800
001E00F800
001E00F000
003E00F000
003E01F000
003C01F000
003C01F000
007C01E000
007C01E000
3FFFFFFE00
3FFFFFFE00
3FFFFFFE00
3FFFFFFE00
3FFFFFFE00
00F807C000
00F007C000
00F0078000
01F0078000
01F00F8000
01F00F8000
01E00F8000
3FFFFFFE00
3FFFFFFE00
3FFFFFFE00
3FFFFFFE00
3FFFFFFE00
03C01E0000
07C01E0000
07C03E0000
07803E0000
07803E0000
0F803C0000
0F803C0000
0F807C0000
0F007C0000
ENDCHAR

STARTCHAR dollar
ENCODING 36
SWIDTH 500 0
DWIDTH 25 0
BBX 26 41 0 -4
BITMAP
00003000
00003000
0007F000
003FFE00
00787F80
00F04780
01F0C700
01E0C700
03E0C300
03E08200
03E18200
03F18000
03F18000
03FB0000
01FF0000
01FF0000
00FF0000
00FF8000
007FC000
003FE000
001FF000
000FF800
000FF800
000BFC00
0019FC00
0018FE00
00187E00
10307E00
18307E00
18307E00
18207C00
38607C00
3C607800
3E60F000
7F41E000
3FC7C000
07FF0000
00C00000
01800000
01800000
01800000
ENDCHAR

STARTCHAR percent
ENCODING 37
SWIDTH 875 0
DWIDTH 44 0
BBX 43 36 1 -1
BITMAP
001C00000780
006300000F00
01C300001E00
01C380003C00
038380007800
07838000F000
07078001E000
0F078003C000
0F0700078000
0E0F000F0000
1E0F001E0000
1E0E003C0000
1C1E00780000
1C1C00F00000
1C1C01E00000
0C3803C00000
0C6007800000
03800F003800
00001E00C600
00003C038600
000078038700
0000F0070700
0001E00F0700
0003C00E0F00
0007801E0F00
000F001E0F00
001E001C1E00
003C003C1E00
0078003C1C00
00F000383C00
01E000383800
03C000383800
078000187000
0E000018C000
1C0000070000
380000000000
ENDCHAR

STARTCHAR ampersand
ENCODING 38
SWIDTH 719 0
DWIDTH 36 0
BBX 37 36 0 -1
BITMAP
000003E000
00001FF000
000038F800
0000787C00
0000F07C00
0000F07C00
0001F07C00
0001F07C00
0001F0F800
0003F0F800
0003F1F000
0003F1E000
0003F3C000
0003FF0000
0003FC0000
0003F80000
0003F80000
000FFC3FE0
003DFC1F80
00F1FC1F00
01E1FC1E00
07C1FE1C00
0FC0FE1C00
0FC0FF1800
1F80FF3000
3F807FF000
3F807FE000
3FC03FC000
3FC03FC000
3FE01FE000
3FE01FF000
3FF81FFC20
1FFFFFFFC0
0FFFE3FFC0
07FF81FF00
01FC007E00
ENDCHAR

STARTCHAR quoteright
ENCODING 39
SWIDTH 271 0
DWIDTH 14 0
BBX 14 15 3 20
BITMAP
03C0
07E0
0FF0
0FF0
0FF0
0FF0
07F0
03E0
01E0
01C0
01C0
0380
0600
0C00
3000
ENDCHAR

STARTCHAR parenleft
ENCODING 40
SWIDTH 500 0
DWIDTH 25 0
BBX 22 43 4 -9
BITMAP
000070
0001C0
000380
000F00
001F00
003E00
007C00
00F800
01F800
01F000
03F000
07E000
07E000
0FC000
0FC000
1F8000
1F8000
3F8000
3F0000
3F0000
3F0000
7F0000
7E0000
7E0000
7E0000
7E0000
7E0000
7C0000
7C0000
3C0000
3C0000
3C0000
3C0000
1C0000
1C0000
1C0000
0C0000
0E0000
060000
060000
020000
010000
010000
ENDCHAR

STARTCHAR parenright
ENCODING 41
SWIDTH 500 0
DWIDTH 25 0
BBX 22 44 -1 -9
BITMAP
000200
000200
000100
000180
000180
0000C0
0000C0
0000E0
0000E0
0000E0
0000F0
0000F0
0000F0
0000F0
0000F8
0000F8
0000F8
0001F8
0001F8
0001F8
0001F8
0001F8
0003F8
0003F0
0003F0
0007F0
0007E0
0007E0
000FE0
000FC0
000FC0
001F80
001F00
003F00
007E00
007C00
00F800
01F000
01E000
03C000
070000
0E0000
180000
200000
ENDCHAR

STARTCHAR asterisk
ENCODING 42
SWIDTH 500 0
DWIDTH 25 0
BBX 23 19 6 16
BITMAP
003800
007C00
007C00
007C00
003800
1C3870
3E18F8
3F11F8
3F93F8
1FFFF0
001800
002C00
00E600
01C780
07C7C0
07C7C0
07C7C0
0783C0
030180
ENDCHAR

STARTCHAR plus
ENCODING 43
SWIDTH 667 0
DWIDTH 33 0
BBX 31 27 2 0
BITMAP
0007C000
0007C000
0007C000
0007C000
0007C000
0007C000
0007C000
0007C000
0007C000
0007C000
0007C000
3FFFFFF8
3FFFFFF8
3FFFFFF8
3FFFFFF8
3FFFFFF8
0007C000
0007C000
0007C000
0007C000
0007C000
0007C000
0007C000
0007C000
0007C000
0007C000
0007C000
ENDCHAR

STARTCHAR comma
ENCODING 44
SWIDTH 271 0
DWIDTH 14 0
BBX 14 15 -2 -9
BITMAP
03C0
07E0
0FF0
0FF0
0FF0
0FF0
07F0
03E0
01E0
01C0
01C0
0380
0700
0C00
3000
ENDCHAR

STARTCHAR minus
ENCODING 45
SWIDTH 667 0
DWIDTH 33 0
BBX 30 5 2 11
BITMAP
7FFFFFF0
7FFFFFF0
7FFFFFF0
7FFFFFF0
7FFFFFF0
ENDCHAR

STARTCHAR period
ENCODING 46
SWIDTH 271 0
DWIDTH 14 0
BBX 12 8 0 -1
BITMAP
0F00
1F80
3FC0
3FC0
3FC0
3FC0
1F80
0F00
ENDCHAR

STARTCHAR slash
ENCODING 47
SWIDTH 281 0
DWIDTH 14 0
BBX 17 35 -1 -1
BITMAP
003F00
003E00
003E00
007E00
007E00
007C00
007C00
00FC00
00FC00
00FC00
00F800
01F800
01F800
01F800
01F000
03F000
03F000
03F000
03E000
07E000
07E000
07E000
07C000
07C000
0FC000
0FC000
0F8000
0F8000
1F8000
1F8000
1F0000
1F0000
3F0000
3F0000
3F0000
ENDCHAR

STARTCHAR zero
ENCODING 48
SWIDTH 500 0
DWIDTH 25 0
BBX 25 36 1 -1
BITMAP
0007F000
000E3800
003C1C00
00781E00
00F81E00
01F01E00
01F01F00
03E01F00
03E01F00
07E01F00
07E01F00
0FC03F00
0FC03F00
1FC03F00
1F803F00
1F807E00
3F807E00
3F807E00
3F00FE00
3F00FE00
3F00FC00
7E00FC00
7E01FC00
7E01F800
7E01F800
7E01F800
7C03F000
7C03F000
7C03E000
3C07C000
3C07C000
3C0F8000
1C0F0000
1E1E0000
0E380000
03E00000
ENDCHAR

STARTCHAR one
ENCODING 49
SWIDTH 500 0
DWIDTH 25 0
BBX 25 35 -1 0
BITMAP
00000600
00007E00
000FFC00
007FFC00
0003FC00
0001FC00
0001F800
0001F800
0003F800
0003F000
0003F000
0003F000
0007F000
0007E000
0007E000
000FE000
000FC000
000FC000
000FC000
001FC000
001F8000
001F8000
003F8000
003F0000
003F0000
003F0000
007F0000
007E0000
007E0000
00FE0000
00FE0000
00FC0000
01FC0000
03FE0000
3FFFE000
ENDCHAR

STARTCHAR two
ENCODING 50
SWIDTH 500 0
DWIDTH 25 0
BBX 25 35 -1 0
BITMAP
000FE000
003FF000
007FFC00
00FFFC00
01FFFE00
01C1FE00
0300FF00
02007F00
00003F00
00003F00
00003F00
00003F00
00003E00
00003E00
00007E00
00007C00
00007800
0000F800
0001F000
0001E000
0003C000
00078000
000F0000
001E0000
003C0000
00380000
00600C00
00C01800
0180F800
03FFF800
07FFF000
0FFFF000
1FFFE000
3FFFE000
3FFFC000
ENDCHAR

STARTCHAR three
ENCODING 51
SWIDTH 500 0
DWIDTH 25 0
BBX 26 36 -1 -1
BITMAP
0001F000
0007FC00
001FFE00
003FFF00
0030FF00
00407F00
00003F00
00003F00
00003F00
00007E00
00007E00
0000FC00
0000F800
0003E000
00078000
003FC000
03FFE000
003FF000
000FF800
0007F800
0007F800
0003F800
0003F800
0001F800
0001F800
0001F800
0001F000
0001F000
0001F000
0001E000
1803E000
3E03C000
7F078000
7F8F0000
3FFC0000
0FE00000
ENDCHAR

STARTCHAR four
ENCODING 52
SWIDTH 500 0
DWIDTH 25 0
BBX 28 36 -1 -1
BITMAP
000003C0
000007C0
00000780
00000F80
00001F80
00003F00
00007F00
0000FF00
0001FF00
0003FE00
00037E00
0006FE00
000CFC00
0018FC00
0030FC00
0071FC00
00E1F800
00C1F800
0183F800
0303F800
0603F000
0E03F000
0C07F000
1807E000
1FFFFF00
1FFFFE00
3FFFFE00
3FFFFE00
000FC000
001FC000
001F8000
001F8000
003F8000
003F0000
003F0000
003F0000
ENDCHAR

STARTCHAR five
ENCODING 53
SWIDTH 500 0
DWIDTH 25 0
BBX 26 35 0 -1
BITMAP
000FFF80
001FFF80
001FFF00
003FFF00
003FFF00
007FFE00
00600000
00C00000
00C00000
01F80000
01FE0000
03FF8000
03FFC000
07FFE000
007FF000
001FF000
0007F800
0003F800
0003F800
0001F800
0001F800
0000F800
0000F800
0000F800
0000F800
0000F000
0000F000
0000E000
0001C000
3801C000
7E038000
7F070000
3FFC0000
3FF00000
0F800000
ENDCHAR

STARTCHAR six
ENCODING 54
SWIDTH 500 0
DWIDTH 25 0
BBX 29 36 -1 -1
BITMAP
000000E0
00000F80
00003E00
0000F800
0003F000
0007E000
001F8000
003F8000
007F0000
00FE0000
01FC0000
01F80000
03F80000
07F00000
07F7E000
0FFFF800
0FF1FC00
1FE07E00
1FC07E00
1FC03F00
1FC03F00
3F803F00
3F803F00
3F803F00
3F003F00
3F007F00
3F007F00
3F007E00
3E00FE00
1E00FC00
1E00FC00
1E01F800
0E03F000
0703E000
038F8000
00FE0000
ENDCHAR

STARTCHAR seven
ENCODING 55
SWIDTH 500 0
DWIDTH 25 0
BBX 25 35 3 -1
BITMAP
07FFFF00
07FFFF00
0FFFFE00
0FFFFC00
1FFFFC00
1FFFF800
38003800
20007000
40006000
0000E000
0000C000
0001C000
00038000
00030000
00070000
00060000
000E0000
001C0000
00180000
00380000
00700000
00700000
00E00000
00C00000
01C00000
03800000
03800000
07000000
06000000
0E000000
1C000000
1C000000
38000000
30000000
10000000
ENDCHAR

STARTCHAR eight
ENCODING 56
SWIDTH 500 0
DWIDTH 25 0
BBX 28 36 -1 -1
BITMAP
0003F800
000F1E00
003E0F00
007E0F80
007C07C0
00FC07C0
00FC07C0
00FC07C0
00FC07C0
00FE07C0
00FE0F80
00FE0F80
00FF0F00
007F9E00
007FFC00
003FF000
001FE000
001FF000
007FF800
01E7F800
03C3FC00
0783FC00
0F81FE00
1F01FE00
1F00FE00
3F00FE00
3F00FE00
3F00FE00
3E00FC00
3E00FC00
3E00FC00
1F00F800
1F01F000
0F03E000
03C7C000
01FF0000
ENDCHAR

STARTCHAR nine
ENCODING 57
SWIDTH 500 0
DWIDTH 25 0
BBX 27 36 0 -1
BITMAP
0003C000
000FF800
003E1C00
007E1E00
00FC0F00
00FC0F00
01F80F80
01F80F80
03F80F80
03F00F80
07F01F80
07F01F80
07F01F80
07E01F80
07E03F80
07E03F80
07E03F80
07E07F00
03E07F00
03F07F00
01F8FE00
00FFFE00
007FFC00
0001FC00
0003F800
0003F800
0007F000
0007E000
000FC000
001F8000
003F0000
007E0000
00F80000
03E00000
0F800000
38000000
ENDCHAR

STARTCHAR colon
ENCODING 58
SWIDTH 333 0
DWIDTH 17 0
BBX 16 24 0 -1
BITMAP
00F0
01F8
03FC
03FC
03FC
03FC
01F8
00F0
0000
0000
0000
0000
0000
0000
0000
0000
0F00
1F80
3FC0
3FC0
3FC0
3FC0
1F80
0F00
ENDCHAR

STARTCHAR semicolon
ENCODING 59
SWIDTH 333 0
DWIDTH 17 0
BBX 18 32 -2 -9
BITMAP
003C00
007E00
00FF00
00FF00
00FF00
00FF00
007E00
003C00
000000
000000
000000
000000
000000
000000
000000
000000
000000
03C000
07E000
0FF000
0FF000
0FF000
0FF000
07F000
03E000
01E000
01C000
01C000
038000
060000
1C0000
300000
ENDCHAR

STARTCHAR less
ENCODING 60
SWIDTH 667 0
DWIDTH 33 0
BBX 30 27 2 0
BITMAP
00000018
00000078
000001F8
00000FF8
00003FF8
0001FFF0
0007FFC0
003FFE00
00FFF800
03FFC000
1FFF0000
3FF80000
3FE00000
3F800000
3FE00000
3FFC0000
0FFF0000
03FFE000
00FFF800
001FFF00
0007FFC0
0000FFF8
00003FF8
00000FF8
000001F8
00000078
00000008
ENDCHAR

STARTCHAR equal
ENCODING 61
SWIDTH 667 0
DWIDTH 33 0
BBX 30 17 2 5
BITMAP
3FFFFFF8
3FFFFFF8
3FFFFFF8
3FFFFFF8
3FFFFFF8
00000000
00000000
00000000
00000000
00000000
00000000
00000000
3FFFFFF8
3FFFFFF8
3FFFFFF8
3FFFFFF8
3FFFFFF8
ENDCHAR

STARTCHAR greater
ENCODING 62
SWIDTH 667 0
DWIDTH 33 0
BBX 30 27 2 0
BITMAP
20000000
3C000000
3F000000
3FC00000
3FF80000
3FFE0000
07FFC000
01FFF000
003FFE00
000FFF80
0001FFE0
00007FF8
00000FF8
000003F8
00001FF8
00007FF8
0003FFE0
000FFF00
007FFC00
01FFF000
0FFF8000
3FFE0000
3FF00000
3FC00000
3F000000
38000000
20000000
ENDCHAR

STARTCHAR question
ENCODING 63
SWIDTH 385 0
DWIDTH 19 0
BBX 22 36 0 -1
BITMAP
003F00
00E7C0
01C3E0
03E1F0
03E1F0
07F1F8
07F1F8
07F1F8
03F3F8
01E3F8
0003F0
0007F0
000FE0
000FC0
001F80
003F00
007C00
007800
00F000
01C000
038000
030000
020000
060000
040000
040000
000000
000000
0F0000
1F8000
3FC000
3FC000
3FC000
3FC000
1F8000
0F0000
ENDCHAR

STARTCHAR at
ENCODING 64
SWIDTH 927 0
DWIDTH 46 0
BBX 48 46 0 -11
BITMAP
000003FC0000
00003FFFC000
0001F800F000
0007C0003C00
001F00000E00
003C00000300
007800000180
00E000000180
01C0000000C0
038000000060
078000000060
070001C00020
0E0007E7E030
0E001F37E030
1C003E17E030
1C007C1FC010
3800FC1FC010
3801F81FC010
3801F81F8010
3803F01F8010
3003F03F8010
7007E03F0030
7007E03F0030
700FE07F0020
700FC07F0060
700FC0FE0060
700FC0FE00C0
701FC1FE00C0
301FC3FC0180
301FC6FC0300
381FFCFC0600
380FF8FC0C04
180FF8FE380C
1C07E07FE008
0C03C01F0018
0E0000000030
060000000020
030000000040
0380000000C0
01C000000180
00E000000700
007000000E00
001C00003800
00070000E000
0001F00F8000
00003FFC0000
ENDCHAR

STARTCHAR A
ENCODING 65
SWIDTH 719 0
DWIDTH 36 0
BBX 34 35 -1 0
BITMAP
0000000100
0000000300
0000000700
0000000F00
0000001F00
0000003F00
0000003F00
0000007E00
000000FE00
000001FE00
000003FE00
000003FE00
000006FE00
00000CFE00
00001CFE00
000038FE00
000070FE00
000060FE00
0000C0FE00
000180FE00
000380FE00
000701FE00
0007FFFC00
000FFFFC00
001801FC00
003801FC00
007001FC00
006001FC00
00C001FC00
018001FC00
038001FC00
070001FC00
0F0003FC00
1F8007FE00
3FE01FFF80
ENDCHAR

STARTCHAR B
ENCODING 66
SWIDTH 667 0
DWIDTH 33 0
BBX 36 34 0 0
BITMAP
003FFFF800
0007FFFF00
0007F87F80
0003F83FC0
0007F81FC0
0007F01FE0
0007F01FE0
000FF01FE0
000FF01FE0
000FE01FC0
000FE03FC0
001FE03F80
001FC07F00
001FC0FE00
003FC3F800
003FFF8000
003FFFC000
003F87F000
007F81F800
007F01FC00
007F00FE00
00FF00FF00
00FE00FF00
00FE00FF00
00FE00FF00
01FE00FF00
01FC01FF00
01FC01FE00
03FC03FE00
03F807FC00
03F80FF800
07F81FF000
0FFFFFC000
7FFFFE0000
ENDCHAR

STARTCHAR C
ENCODING 67
SWIDTH 719 0
DWIDTH 36 0
BBX 39 36 2 -1
BITMAP
000007FE0C
00007FFFF8
0001FE03F8
0007F800F8
000FE00078
003FC00078
007F800030
00FF000030
01FE000030
03FE000010
03FC000000
07F8000000
0FF8000000
0FF0000000
1FF0000000
1FE0000000
1FE0000000
3FE0000000
3FE0000000
3FC0000000
3FC0000000
3FC0000000
3FC0000000
3FC0000000
3FC0000000
1FC0000000
1FE0000000
1FE0000100
0FE0000200
0FF0000400
07F8000C00
03FC003800
01FF00E000
00FFFFC000
003FFF0000
0003F80000
ENDCHAR

STARTCHAR D
ENCODING 68
SWIDTH 771 0
DWIDTH 39 0
BBX 41 34 -1 0
BITMAP
003FFFF00000
0007FFFE0000
0003FC3F8000
0003FC1FE000
0003F80FF000
0003F807F000
0007F803F800
0007F003FC00
0007F003FC00
000FF001FE00
000FF001FE00
000FE001FE00
000FE001FE00
001FE001FE00
001FC001FE00
001FC001FE00
003FC001FE00
003FC003FE00
003F8003FE00
003F8003FC00
007F8003FC00
007F0007F800
007F0007F800
00FF0007F000
00FE000FF000
00FE001FE000
00FE001FC000
01FE003F8000
01FC007F0000
01FC00FE0000
03FC01F80000
03FE0FE00000
07FFFF800000
3FFFF8000000
ENDCHAR

STARTCHAR E
ENCODING 69
SWIDTH 667 0
DWIDTH 33 0
BBX 37 34 0 0
BITMAP
007FFFFFE0
000FFFFFE0
000FF00FE0
0007F003E0
0007F001C0
000FF000C0
000FE000C0
000FE00040
001FE00000
001FC00000
001FC00800
003FC01000
003FC03000
003F807000
003F81E000
007FFFE000
007FFFE000
007F03E000
00FF00C000
00FF00C000
00FE00C000
00FE008000
01FE000000
01FC000000
01FC000000
03FC000200
03F8000600
03F8000C00
03F8003C00
07F800FC00
07F801F800
0FFC0FF800
1FFFFFF000
7FFFFFF000
ENDCHAR

STARTCHAR F
ENCODING 70
SWIDTH 604 0
DWIDTH 30 0
BBX 36 34 -1 0
BITMAP
003FFFFFC0
000FFFFFC0
0007F81FC0
0007F807C0
0007F80380
0007F00180
0007F00180
000FF00080
000FF00000
000FE00000
000FE02000
001FE02000
001FC06000
001FC0E000
003FC7C000
003FFFC000
003FFFC000
003F878000
007F838000
007F018000
007F018000
00FF010000
00FF000000
00FE000000
00FE000000
01FE000000
01FC000000
01FC000000
03FC000000
03FC000000
03F8000000
07F8000000
0FFC000000
3FFF800000
ENDCHAR

STARTCHAR G
ENCODING 71
SWIDTH 719 0
DWIDTH 36 0
BBX 38 36 1 -1
BITMAP
00000FFC18
0000FFFFF0
0003FC07F0
000FF001F0
003FC000F0
007F8000F0
00FF000060
01FE000060
03FC000060
07F8000020
0FF8000020
0FF0000000
1FF0000000
1FE0000000
3FE0000000
3FC0000000
3FC0000000
7FC0000000
7F8007FFE0
7F8001FF80
7F8000FF00
7F8000FF00
7F8000FE00
7F8000FE00
3F8001FE00
3F8001FC00
3F8001FC00
1FC003FC00
1FC003FC00
0FC003F800
0FE003F800
07F007F800
01F807F000
00FE0FF000
003FFFC000
0007FC0000
ENDCHAR

STARTCHAR H
ENCODING 72
SWIDTH 823 0
DWIDTH 41 0
BBX 48 34 -1 0
BITMAP
003FFFE1FFFC
0007FE007FE0
0003FC003FC0
0003F8003FC0
0003F8003F80
0007F8003F80
0007F0007F80
0007F0007F80
0007F0007F00
000FF0007F00
000FE000FF00
000FE000FE00
001FE000FE00
001FC001FE00
001FC001FC00
003FFFFFFC00
003FFFFFFC00
003F8003FC00
003F8003F800
007F8003F800
007F0007F800
007F0007F000
00FF0007F000
00FE0007F000
00FE000FF000
00FE000FE000
01FE000FE000
01FC001FE000
01FC001FC000
03FC001FC000
03FC003FC000
07FC003FC000
0FFE007FE000
3FFF87FFFC00
ENDCHAR

STARTCHAR I
ENCODING 73
SWIDTH 385 0
DWIDTH 19 0
BBX 26 34 -1 0
BITMAP
007FFF00
000FFC00
0007F800
0007F800
0007F000
0007F000
000FF000
000FE000
000FE000
001FE000
001FC000
001FC000
001FC000
003FC000
003F8000
003F8000
007F8000
007F0000
007F0000
00FF0000
00FF0000
00FE0000
00FE0000
01FE0000
01FC0000
01FC0000
03FC0000
03FC0000
03F80000
03F80000
07F80000
07F80000
0FFC0000
3FFF8000
ENDCHAR

STARTCHAR J
ENCODING 74
SWIDTH 500 0
DWIDTH 25 0
BBX 31 35 0 -1
BITMAP
0007FFF8
0000FFC0
00007FC0
00007F80
00007F80
00007F00
00007F00
0000FF00
0000FE00
0000FE00
0000FE00
0001FE00
0001FC00
0001FC00
0003FC00
0003F800
0003F800
0007F800
0007F800
0007F000
0007F000
000FF000
000FE000
000FE000
001FE000
001FE000
1C1FC000
3E1FC000
7F3F8000
7E3F8000
7E3F0000
7C7E0000
3C7C0000
1FF80000
0FE00000
ENDCHAR

STARTCHAR K
ENCODING 75
SWIDTH 719 0
DWIDTH 36 0
BBX 43 34 -1 0
BITMAP
003FFFC7FF80
0007FE03FC00
0003FC01F000
0003F801E000
0003F8038000
0007F8070000
0007F80E0000
0007F01C0000
0007F0380000
000FF0E00000
000FE1C00000
000FE3800000
001FE7000000
001FCF800000
001FDF800000
001FFF800000
003FFFC00000
003F9FC00000
003F9FC00000
007F9FE00000
007F0FE00000
007F0FE00000
00FF0FF00000
00FF07F00000
00FE07F80000
00FE07F80000
01FE03F80000
01FC03FC0000
01FC01FC0000
03FC01FC0000
03FC01FE0000
03FC01FE0000
07FE03FF0000
3FFF8FFFC000
ENDCHAR

STARTCHAR L
ENCODING 76
SWIDTH 667 0
DWIDTH 33 0
BBX 34 34 -1 0
BITMAP
003FFFC000
0007FE0000
0003FC0000
0003FC0000
0003F80000
0003F80000
0007F80000
0007F00000
0007F00000
000FF00000
000FE00000
000FE00000
000FE00000
001FE00000
001FC00000
001FC00000
003FC00000
003F800000
003F800000
007F800000
007F800000
007F000000
007F000000
00FF000000
00FE000000
00FE000180
01FE000300
01FC000700
01FC000E00
01FC003E00
03FC00FE00
03FE07FC00
07FFFFFC00
3FFFFFF800
ENDCHAR

STARTCHAR M
ENCODING 77
SWIDTH 990 0
DWIDTH 49 0
BBX 56 34 -1 0
BITMAP
003FFC00001FFC
0007FC00003FF0
0003FC00003FE0
0003FC00007FC0
0003FE0000FFC0
0006FE0000FF80
0006FE0001BF80
0006FE00037F80
0004FE00077F00
000CFE00067F00
000CFE000CFF00
000C7F0018FF00
00187F0038FE00
00187F0030FE00
00187F0061FE00
00107F00C1FC00
00307F01C1FC00
00307F0183FC00
00303F8303FC00
00603F8603F800
00603F8E03F800
00603F8C07F800
00403F9807F000
00C03FB807F000
00C03FB00FF000
00C01FE00FF000
01801FC00FE000
01801FC00FE000
01801F801FE000
03801F001FC000
03801E001FC000
07800E003FC000
1FC00C007FE000
3FF00803FFFC00
ENDCHAR

STARTCHAR N
ENCODING 78
SWIDTH 771 0
DWIDTH 39 0
BBX 46 34 -1 0
BITMAP
003FF8001FF0
000FF8000FC0
0007FC000780
0003FC000700
0007FE000700
0007FE000600
0006FF000600
000CFF000600
000C7F800C00
000C7F800C00
00083FC00C00
00183FC00800
00181FE01800
00181FE01800
00300FF01800
00300FF03000
003007F83000
002007F83000
006003FC2000
006003FC6000
006001FE6000
00C001FE4000
00C000FFC000
00C000FFC000
0080007FC000
0180007F8000
0180003F8000
0180003F8000
0300001F0000
0300001F0000
0700000F0000
0780000F0000
1FC000060000
3FF000060000
ENDCHAR

STARTCHAR O
ENCODING 79
SWIDTH 771 0
DWIDTH 39 0
BBX 37 36 4 -1
BITMAP
00000FE000
00007FFC00
0003F07F00
0007C03F80
001F801F80
003F001FC0
007E000FE0
00FE000FE0
01FC000FE0
03F8000FF0
03F8000FF0
07F8000FF0
0FF0000FF0
0FF0000FF0
1FE0000FF0
1FE0001FF0
3FE0001FF0
3FC0001FE0
3FC0001FE0
3FC0003FE0
7FC0003FC0
7FC0003FC0
7F80007F80
7F80007F80
7F80007F00
7F8000FE00
7F8000FE00
3F8001FC00
3F8001F800
3F8003F000
1FC007E000
0FC00FC000
07E01F0000
03F07C0000
01FFF00000
003F800000
ENDCHAR

STARTCHAR P
ENCODING 80
SWIDTH 667 0
DWIDTH 33 0
BBX 36 34 -1 0
BITMAP
007FFFF800
000FFFFE00
0007F87F00
0007F83F80
0007F81FC0
0007F01FE0
0007F01FE0
000FF01FE0
000FE01FE0
000FE01FE0
001FE01FE0
001FE03FC0
001FC03FC0
001FC07F80
003FC07F00
003F80FE00
003F83FC00
007FFFF000
007FFF8000
007F000000
007F000000
00FF000000
00FE000000
00FE000000
01FE000000
01FE000000
01FC000000
01FC000000
03FC000000
03F8000000
03F8000000
07F8000000
0FFC000000
3FFF800000
ENDCHAR

STARTCHAR Q
ENCODING 81
SWIDTH 771 0
DWIDTH 39 0
BBX 37 46 4 -11
BITMAP
00000FE000
00007FFC00
0003F07F00
0007C03F80
001F801F80
003F001FC0
007E000FE0
00FE000FE0
01FC000FE0
03F8000FF0
03F8000FF0
07F8000FF0
0FF0000FF0
0FF0000FF0
1FE0000FF0
1FE0001FF0
3FE0001FF0
3FC0001FE0
3FC0001FE0
3FC0003FE0
7FC0003FC0
7FC0003FC0
7F80007F80
7F80007F80
7F80007F00
7F8000FF00
7F8000FE00
3F8001FC00
3F8003F800
3F8003F000
1FC007E000
0FC00FC000
07E01F0000
03F07E0000
01FFF80000
003F800000
001C000000
0038000000
0060000000
00C0000060
01FFF000C0
03FFFF0780
07FFFFFF00
1FFFFFFC00
3CFFFFF800
0003FFC000
ENDCHAR

STARTCHAR R
ENCODING 82
SWIDTH 719 0
DWIDTH 36 0
BBX 37 34 -1 0
BITMAP
003FFFFC00
0007FFFF80
0003FC3FC0
0003FC1FE0
0003F80FE0
0003F80FF0
0007F80FF0
0007F00FF0
0007F00FF0
000FF00FF0
000FE00FE0
000FE01FE0
000FE03FC0
001FE03F80
001FC0FF00
001FC3FC00
003FFFE000
003F9FC000
003F9FE000
007F8FE000
007F8FE000
007F0FF000
007F07F000
00FF07F000
00FE07F800
00FE03F800
01FE03F800
01FE03FC00
01FC01FC00
01FC01FC00
03FC01FE00
03FC00FE00
07FE00FF00
3FFFC0FFC0
ENDCHAR

STARTCHAR S
ENCODING 83
SWIDTH 604 0
DWIDTH 30 0
BBX 35 36 0 -1
BITMAP
0000FF0080
0003FFFF80
000FE0FF00
001FC03F00
001F801F00
003F000F00
003F000F00
007F000600
007F000600
007F800600
007F800600
007FC00000
003FE00000
003FF00000
001FF80000
001FFC0000
000FFE0000
0007FF0000
0003FF8000
0001FFC000
0000FFE000
00003FE000
00001FF000
08001FF000
08000FF000
0C0007F000
0C0007F000
1C0007F000
1C0007F000
1E0007F000
1F000FE000
3F000FC000
3F801FC000
3FE07F0000
3FFFFE0000
200FF00000
ENDCHAR

STARTCHAR T
ENCODING 84
SWIDTH 667 0
DWIDTH 33 0
BBX 34 34 4 0
BITMAP
03FFFFFF80
03FFFFFF00
03FCFEFF00
07E1FE1F00
0781FC0E00
0701FC0600
0603FC0600
0C03FC0600
0803F80400
0003F80000
0007F80000
0007F00000
0007F00000
000FF00000
000FE00000
000FE00000
000FE00000
001FE00000
001FC00000
001FC00000
003FC00000
003F800000
003F800000
007F800000
007F800000
007F000000
007F000000
00FF000000
00FE000000
00FE000000
01FE000000
01FE000000
03FF000000
3FFFE00000
ENDCHAR

STARTCHAR U
ENCODING 85
SWIDTH 771 0
DWIDTH 39 0
BBX 40 35 4 -1
BITMAP
0FFFF01FFC
01FF8003F8
00FF0001E0
00FE0001C0
00FE0001C0
01FE000180
01FC000180
01FC000180
03FC000300
03F8000300
03F8000300
03F8000200
07F8000600
07F0000600
07F0000600
0FF0000C00
0FE0000C00
0FE0000C00
0FE0000800
1FE0001800
1FC0001800
1FC0001800
3FC0003000
3FC0003000
3F80003000
3F80006000
3F80006000
3F8000C000
3FC001C000
1FC0018000
1FE0070000
0FF80E0000
07FFFC0000
01FFF00000
003F000000
ENDCHAR

STARTCHAR V
ENCODING 86
SWIDTH 719 0
DWIDTH 36 0
BBX 34 35 7 -1
BITMAP
3FFF00FF80
0FFC003F00
07F8003E00
07F0001C00
07F0003800
07F0007000
07F0006000
07F000C000
07F0018000
07F0038000
07F0070000
0FF0060000
0FF00C0000
0FF0180000
0FF0380000
0FF0300000
0FE0600000
0FE0C00000
0FE1800000
0FE3800000
0FE3000000
0FE6000000
0FEC000000
0FF8000000
0FF0000000
0FF0000000
1FE0000000
1FC0000000
1F80000000
1F00000000
1F00000000
1E00000000
1C00000000
1800000000
1000000000
ENDCHAR

STARTCHAR W
ENCODING 87
SWIDTH 990 0
DWIDTH 49 0
BBX 49 35 6 -1
BITMAP
7FFE1FFF01FF00
1FF007FC007C00
0FF003F8003800
0FE003F8003000
0FE003F8007000
0FE003F8006000
0FE003F800C000
0FE003F0018000
0FE007F0038000
0FE00FF0030000
0FE00FF0060000
0FE01FF00E0000
0FE03FF00C0000
0FE037F0180000
0FE067F0300000
0FE0C7F0700000
0FE1C7F0600000
1FE187F0C00000
1FE307F1C00000
1FE607F1800000
1FEE07F3000000
1FCC07F6000000
1FD807FE000000
1FF007FC000000
1FF007F8000000
1FE007F8000000
1FC007F0000000
1FC00FE0000000
1F800FC0000000
1F000FC0000000
1E000F80000000
1E000F00000000
1C000E00000000
18000E00000000
10000C00000000
ENDCHAR

STARTCHAR X
ENCODING 88
SWIDTH 719 0
DWIDTH 36 0
BBX 42 34 -1 0
BITMAP
007FFE03FF80
001FFC00FE00
000FF800FC00
0007F800F000
0007F800E000
0003F801C000
0003FC038000
0003FC070000
0001FC0E0000
0001FE1C0000
0001FE380000
0000FE700000
0000FFE00000
0000FFC00000
00007F800000
00007F800000
00003F800000
00003FC00000
00003FC00000
00007FC00000
0000FFE00000
0001CFE00000
00038FE00000
00070FF00000
000E07F00000
001C07F00000
003807F80000
007003F80000
00E003FC0000
01C003FC0000
03C003FC0000
07C003FE0000
1FE007FF0000
3FF81FFF8000
ENDCHAR

STARTCHAR Y
ENCODING 89
SWIDTH 719 0
DWIDTH 36 0
BBX 36 34 6 0
BITMAP
7FFFC0FFC0
0FFE003F80
07FC001F00
07F8001E00
03F8001C00
03FC003800
03FC003000
01FC006000
01FE00E000
01FE01C000
00FE038000
00FF030000
00FF060000
007F0C0000
007F9C0000
007FB80000
003FF00000
003FE00000
003FC00000
003FC00000
003F800000
003F800000
007F800000
007F800000
007F000000
00FF000000
00FF000000
00FE000000
00FE000000
01FE000000
01FE000000
03FE000000
07FE000000
3FFFE00000
ENDCHAR

STARTCHAR Z
ENCODING 90
SWIDTH 719 0
DWIDTH 36 0
BBX 41 34 0 0
BITMAP
000FFFFFFE00
001FFFFFFE00
001FC007FC00
001E000FF800
0038001FF000
0030003FE000
0020007FC000
006000FF8000
000001FF8000
000003FF0000
000003FE0000
000007FC0000
00000FF80000
00001FF00000
00003FE00000
00007FC00000
0000FF800000
0001FF800000
0003FF000000
0007FE000000
0007FC000000
000FF8000000
001FF0000000
003FE0000000
007FC0000000
00FF80008000
01FF80018000
03FF00070000
07FE000F0000
07FC001E0000
0FF8007E0000
1FF003FE0000
3FFFFFFC0000
7FFFFFFC0000
ENDCHAR

STARTCHAR bracketleft
ENCODING 91
SWIDTH 500 0
DWIDTH 25 0
BBX 28 43 1 -8
BITMAP
0003FFC0
0003F800
0007F000
0007F000
0007E000
0007E000
000FE000
000FC000
000FC000
001FC000
001F8000
001F8000
001F8000
003F8000
003F0000
003F0000
007F0000
007E0000
007E0000
007E0000
00FE0000
00FC0000
00FC0000
01FC0000
01F80000
01F80000
01F80000
03F80000
03F00000
03F00000
07F00000
07E00000
07E00000
07E00000
0FC00000
0FC00000
0FC00000
1FC00000
1F800000
1F800000
1F800000
3FC00000
3FF00000
ENDCHAR

STARTCHAR backslash
ENCODING 92
SWIDTH 281 0
DWIDTH 14 0
BBX 17 35 -1 -1
BITMAP
3F0000
3F0000
3F0000
1F0000
1F8000
1F8000
1F8000
0F8000
0F8000
0FC000
0FC000
07C000
07C000
07E000
07E000
07E000
03E000
03F000
03F000
03F000
01F000
01F800
01F800
01F800
00F800
00FC00
00FC00
00FC00
007C00
007E00
007E00
007E00
003E00
003E00
003F00
ENDCHAR

STARTCHAR bracketright
ENCODING 93
SWIDTH 500 0
DWIDTH 25 0
BBX 28 43 -2 -8
BITMAP
0003FFC0
00003FC0
00001FC0
00001F80
00001F80
00003F80
00003F00
00003F00
00003F00
00007F00
00007E00
00007E00
0000FE00
0000FC00
0000FC00
0000FC00
0001FC00
0001F800
0001F800
0003F800
0003F000
0003F000
0003F000
0007F000
0007E000
0007E000
000FE000
000FC000
000FC000
000FC000
001FC000
001F8000
001F8000
003F8000
003F0000
003F0000
003F0000
007F0000
007E0000
007E0000
00FE0000
00FC0000
0FFC0000
ENDCHAR

STARTCHAR asciicircum
ENCODING 94
SWIDTH 573 0
DWIDTH 29 0
BBX 25 18 2 16
BITMAP
00180000
001C0000
003E0000
003E0000
007F0000
007F0000
00F78000
01F78000
01E3C000
03C3E000
03C1E000
0781F000
0780F000
0F007800
1F007800
1E003C00
3C003E00
3C001E00
ENDCHAR

STARTCHAR underscore
ENCODING 95
SWIDTH 500 0
DWIDTH 25 0
BBX 29 3 -2 -6
BITMAP
3FFFFFE0
3FFFFFE0
3FFFFFE0
ENDCHAR

STARTCHAR quoteleft
ENCODING 96
SWIDTH 271 0
DWIDTH 14 0
BBX 13 15 5 20
BITMAP
0060
01C0
0300
0600
0C00
1C00
3C00
3E00
7F00
7F80
7F80
7F80
7F80
3F80
1F00
ENDCHAR

STARTCHAR a
ENCODING 97
SWIDTH 500 0
DWIDTH 25 0
BBX 26 24 -1 -1
BITMAP
000F8000
003CDF80
00787F00
00F07F00
01F07F00
03E07F00
03E07E00
07C07E00
0FC0FE00
0FC0FC00
1F80FC00
1F81FC00
1F81F800
3F81F800
3F03F800
3F07F000
3F07F000
3F0BF000
3F9BF100
3FF7F300
3FE7FE00
1FE7FC00
0FC3F800
0701E000
ENDCHAR

STARTCHAR b
ENCODING 98
SWIDTH 500 0
DWIDTH 25 0
BBX 26 36 -1 -1
BITMAP
0003C000
00FFC000
007FC000
003F8000
003F8000
003F8000
003F0000
003F0000
007F0000
007E0000
007E0000
007E0000
00FC7C00
00FDFE00
00FFFF00
01FE7F00
01FC3F80
01F83F80
03F83F80
03F03F80
03F03F80
03F03F80
07E03F00
07E03F00
07E03F00
0FE07F00
0FC07E00
0FC07E00
1FC0FC00
1F80FC00
1F81F800
1F83F000
3F03E000
3F07C000
0F0F0000
03FC0000
ENDCHAR

STARTCHAR c
ENCODING 99
SWIDTH 438 0
DWIDTH 22 0
BBX 23 24 0 -1
BITMAP
0003F0
001E38
00383C
00707C
01F0FC
01E0FC
03C0F8
07C0F0
0FC000
0F8000
1F8000
1F8000
1F8000
3F0000
3F0000
3F0000
3F0000
3F8000
3F8020
3FC040
1FE380
1FFF00
0FFE00
03F800
ENDCHAR

STARTCHAR d
ENCODING 100
SWIDTH 500 0
DWIDTH 25 0
BBX 30 36 0 -1
BITMAP
00000078
00001FF8
00001FF0
000007F0
000007F0
000007E0
000007E0
00000FE0
00000FC0
00000FC0
00001FC0
00001F80
000F9F80
001C5F80
00787F80
00F87F00
01F07F00
03E07F00
03E07E00
07C07E00
07C07E00
0FC0FC00
0F80FC00
1F81FC00
1F81FC00
1F81F800
3F03F800
3F03F800
3F07F000
3F0BF000
3F0BF100
3FB7F100
3FF7F200
1FE7FC00
1FC3FC00
0F83F000
ENDCHAR

STARTCHAR e
ENCODING 101
SWIDTH 438 0
DWIDTH 22 0
BBX 23 24 0 -1
BITMAP
0007F0
001DF8
0078F8
00F0F8
01E0F8
03C1F8
07C1F0
0F81F0
0F83E0
1F83C0
1F0780
3F0E00
3FF800
3FC000
7E0000
7E0000
7E0000
7E0000
7F0040
7F0180
3F8700
3FFE00
1FFC00
07F000
ENDCHAR

STARTCHAR f
ENCODING 102
SWIDTH 333 0
DWIDTH 17 0
BBX 36 46 -9 -11
BITMAP
0000001FC0
00000079E0
000000F1E0
000001E3E0
000003C3E0
000007C1C0
00000F8000
00000F8000
00001F8000
00001F0000
00003F0000
00007F0000
0000FF0000
0003FFC000
0003FFC000
0003FFC000
0000FC0000
0000FC0000
0000FC0000
0000FC0000
0001F80000
0001F80000
0001F80000
0001F80000
0003F00000
0003F00000
0003F00000
0003F00000
0007E00000
0007E00000
0007E00000
0007E00000
000FC00000
000FC00000
000FC00000
000F800000
001F800000
001F800000
001F000000
001F000000
003E000000
1E3C000000
3E38000000
3E78000000
3CE0000000
1F80000000
ENDCHAR

STARTCHAR g
ENCODING 103
SWIDTH 500 0
DWIDTH 25 0
BBX 31 34 -3 -11
BITMAP
0003F800
000F8FF8
003F0FF8
007E0FF8
007E0F80
00FC0FC0
00FC0FC0
01FC1FC0
01FC1FC0
01F81F80
00F83F80
00F83F00
00787E00
0038FC00
001FE000
00700000
00E00000
01E00000
03F80000
03FF0000
03FFE000
01FFF800
00FFFC00
007FFE00
039FFE00
0E01FE00
1E007E00
3C003E00
3C003E00
3C003C00
3E003C00
1E007800
0F81E000
01FF0000
ENDCHAR

STARTCHAR h
ENCODING 104
SWIDTH 500 0
DWIDTH 25 0
BBX 26 35 -1 0
BITMAP
0003C000
00FFC000
00FF8000
003F8000
003F8000
003F0000
003F0000
003F0000
007F0000
007E0000
007E0000
00FE0000
00FC0E00
00FC3F00
01FC7F80
01F8FF80
01F9FF80
01FB3F80
03F63F00
03F43F00
03F83F00
07F07E00
07F07E00
07E07E00
0FE0FE00
0FC0FC00
0FC0FC00
1FC1FC00
1F81F800
1F81F880
1F81F900
3F03FA00
3F03FE00
3F03FC00
7F01F000
ENDCHAR

STARTCHAR i
ENCODING 105
SWIDTH 271 0
DWIDTH 14 0
BBX 18 36 -1 -1
BITMAP
003E00
003F00
007F00
007F00
007F00
003F00
003E00
000000
000000
000000
000000
000000
003C00
0FF800
0FF800
03F800
03F800
03F000
03F000
07F000
07E000
07E000
07E000
0FC000
0FC000
0FC000
1FC000
1F8000
1F8000
3F8800
3F0800
3F1000
3F2000
3FC000
3F8000
1F0000
ENDCHAR

STARTCHAR j
ENCODING 106
SWIDTH 271 0
DWIDTH 14 0
BBX 26 46 -9 -11
BITMAP
00003E00
00007F00
00007F00
00007F00
00007F00
00007F00
00003E00
00000000
00000000
00000000
00000000
00000000
00001C00
000FFC00
000FFC00
0003FC00
0001F800
0001F800
0001F800
0003F800
0003F000
0003F000
0003F000
0007F000
0007E000
0007E000
0007E000
000FE000
000FC000
000FC000
000FC000
001FC000
001F8000
001F8000
003F8000
003F0000
003F0000
003F0000
007E0000
007E0000
007C0000
3C7C0000
7CF80000
7CF00000
79E00000
3F000000
ENDCHAR

STARTCHAR k
ENCODING 107
SWIDTH 552 0
DWIDTH 28 0
BBX 29 35 -1 0
BITMAP
0003C000
00FFC000
00FFC000
003F8000
003F8000
003F8000
003F0000
003F0000
003F0000
007F0000
007E0000
007E0000
00FE0000
00FC3FF0
00FC0FC0
01FC0700
01F80E00
01F81800
01F83000
03F06000
03F0E000
03F3E000
07F7E000
07EFE000
07FFF000
0FF3F000
0FC3F000
0FC3F000
1FC3F800
1F81F840
1F81F880
1F81FF80
3F00FF00
3F00FE00
3F007800
ENDCHAR

STARTCHAR l
ENCODING 108
SWIDTH 271 0
DWIDTH 14 0
BBX 18 36 0 -1
BITMAP
000780
01FF00
01FF00
007F00
007F00
007E00
007E00
00FE00
00FC00
00FC00
00FC00
01F800
01F800
01F800
03F800
03F000
03F000
07F000
07E000
07E000
07E000
0FC000
0FC000
0FC000
1FC000
1F8000
1F8000
3F8000
3F0000
3F1000
7F1000
7F2000
7FE000
7FC000
3F0000
1E0000
ENDCHAR

STARTCHAR m
ENCODING 109
SWIDTH 771 0
DWIDTH 39 0
BBX 40 23 -1 0
BITMAP
003C0F8078
0FFC3F80FC
07FC7FC3FE
01F8FFC7FE
01F99FCEFE
01FB1FD8FE
03F21F90FC
03F41FA0FC
03F81FC0FC
07E83F41F8
07F03F81F8
07E03F01F8
0FE07F03F8
0FC07E03F0
0FC07E03F0
1FC0FE07F0
1F80FC07E0
1F80FC07E2
1F80FC0FE4
3F81F80FEC
3F01F80FF8
3F01F80FF0
7F03F807E0
ENDCHAR

STARTCHAR n
ENCODING 110
SWIDTH 500 0
DWIDTH 25 0
BBX 26 23 -1 0
BITMAP
003C1E00
07FC3F00
07FC7F80
01F8FF80
01F9FF80
03FB3F00
03F63F00
03F43F00
03F87F00
07F07E00
07F07E00
07E07E00
0FE0FE00
0FC0FC00
0FC0FC00
1FC1FC00
1F81F800
1F81F880
1F81F900
3F03FA00
3F03FE00
3F03FC00
7F01F000
ENDCHAR

STARTCHAR o
ENCODING 111
SWIDTH 500 0
DWIDTH 25 0
BBX 25 24 0 -1
BITMAP
0007F000
003C7C00
00783E00
00F03E00
03E03F00
03E03F00
07C03F00
0FC03F00
1FC07F00
1F807F00
3F807F00
3F807E00
3F007E00
7F00FE00
7F00FC00
7F01FC00
7E01F800
7E01F000
7E03E000
3E03E000
3E078000
1F0F0000
1F1E0000
07F00000
ENDCHAR

STARTCHAR p
ENCODING 112
SWIDTH 500 0
DWIDTH 25 0
BBX 32 34 -6 -11
BITMAP
000078E0
001FF3F8
003FF7F8
000FFFFC
0007F1FC
0007E0FC
000FE0FC
000FC0FC
000FC0FC
000FC0FC
001F80FC
001F80F8
001F81F8
003F81F8
003F01F0
003F03F0
007F03E0
007E03E0
007E07C0
007E0780
00FC0F00
00FC1E00
00FE3800
01FFE000
01F80000
01F80000
03F80000
03F00000
03F00000
07F00000
07F00000
07F00000
1FF80000
7FFE0000
ENDCHAR

STARTCHAR q
ENCODING 113
SWIDTH 500 0
DWIDTH 25 0
BBX 26 34 0 -11
BITMAP
000F8000
003CBF00
00787F00
00F07F00
01F07F00
03E07E00
07E07E00
07C0FE00
0FC0FC00
1F80FC00
1F80FC00
1F81F800
3F81F800
3F03F800
3F03F800
3F07F000
7F03F000
7F0FF000
7F17E000
7FB7E000
3FE7E000
3FCFC000
3F8FC000
1F0FC000
001FC000
001F8000
001F8000
003F8000
003F0000
003F0000
007F0000
007F0000
00FF8000
07FFE000
ENDCHAR

STARTCHAR r
ENCODING 114
SWIDTH 385 0
DWIDTH 19 0
BBX 22 23 -1 0
BITMAP
00E0E0
07E1F0
0FE3F0
07E3F0
07E7F0
07E7F0
07C5E0
07C8E0
07C800
07D000
07D000
0FD000
0FA000
0FA000
0FC000
0FC000
1FC000
1F8000
1F8000
1F8000
3F0000
3F0000
3F0000
ENDCHAR

STARTCHAR s
ENCODING 115
SWIDTH 385 0
DWIDTH 19 0
BBX 20 23 0 0
BITMAP
007E60
01E7C0
03C1C0
07C1C0
07C0C0
07E0C0
07E0C0
07F080
03F800
03FC00
01FC00
01FE00
00FE00
007F00
007F00
303F00
301F00
301F00
381F00
381E00
3C1C00
7E3800
63E000
ENDCHAR

STARTCHAR t
ENCODING 116
SWIDTH 333 0
DWIDTH 17 0
BBX 18 29 1 -1
BITMAP
000400
000C00
001C00
007C00
00FC00
03F800
0FFF00
1FFF00
1FFF00
03F000
03F000
07F000
07E000
07E000
07E000
0FE000
0FC000
0FC000
0FC000
1F8000
1F8000
1F8000
1F8000
3F0800
3F1000
3F3000
3FE000
3F8000
0E0000
ENDCHAR

STARTCHAR u
ENCODING 117
SWIDTH 500 0
DWIDTH 25 0
BBX 26 23 0 -1
BITMAP
00781F80
1FF83F00
0FF03F00
07F03F00
07F07F00
07E07E00
07E07E00
07E0FE00
0FE0FC00
0FC0FC00
0FC1FC00
1FC1F800
1F83F800
1F83F800
1F87F000
3F0BF000
3F0BF000
3F17F200
7F67E200
7FE7E400
7FC7F800
3F87F000
1E03E000
ENDCHAR

STARTCHAR v
ENCODING 118
SWIDTH 438 0
DWIDTH 22 0
BBX 21 24 1 -1
BITMAP
0381C0
3FC3E0
1FC3F0
0FC3F0
0FC3F0
0FC1F0
0FC1E0
07C0E0
07E0E0
07E0C0
07E0C0
07E180
07E100
07E300
07E600
07E400
07E800
07F000
07E000
07C000
078000
070000
060000
040000
ENDCHAR

STARTCHAR w
ENCODING 119
SWIDTH 667 0
DWIDTH 33 0
BBX 32 24 2 -1
BITMAP
03803038
7F80307C
3F8070FC
1F80F0FC
1F80F07C
1F81F07C
0F83F03C
0FC3F01C
0FC7F018
0FC7F018
0FCBF830
0FD1F830
0FD1F860
0FE1F840
0FE1F880
0FC1F980
0F81FB00
0F81FE00
0F01FC00
0E01F800
0E01F000
0C01E000
0C00C000
08008000
ENDCHAR

STARTCHAR x
ENCODING 120
SWIDTH 552 0
DWIDTH 28 0
BBX 28 24 0 -1
BITMAP
003C07C0
07FE0FC0
00FE1FE0
007E1FC0
007F3FC0
003F6000
003F4000
003F8000
001F8000
001F8000
001F8000
001F8000
001F8000
001FC000
000FC000
001FC000
001FC000
002FC000
0067E100
3CC7E300
7F87FE00
7F03FC00
7E03F800
3C00E000
ENDCHAR

STARTCHAR y
ENCODING 121
SWIDTH 500 0
DWIDTH 25 0
BBX 29 34 -4 -11
BITMAP
000E01C0
01FF03E0
007F03F0
003F03F0
003F83F0
001F81F0
001F8070
001F8060
001F8060
001F8040
001F80C0
001F8080
001F8180
001F8300
001F8200
001FC600
001FCC00
000FC800
000FD000
000FF000
000FE000
000FC000
000F8000
000F8000
000F0000
000E0000
000C0000
18080000
3E180000
7F300000
7FE00000
7FC00000
3F000000
1C000000
ENDCHAR

STARTCHAR z
ENCODING 122
SWIDTH 438 0
DWIDTH 22 0
BBX 24 26 0 -4
BITMAP
03FFFC
03FFF8
03FFF0
07FFE0
07FFC0
070080
040100
080300
000600
000C00
001800
003000
006000
004000
00C000
018000
030000
07C000
0FE0E0
1FE1F0
3FF1F0
3FF1F0
03F1F0
00F9E0
0079C0
001F80
ENDCHAR

STARTCHAR braceleft
ENCODING 123
SWIDTH 396 0
DWIDTH 20 0
BBX 16 44 4 -9
BITMAP
000E
007C
00F0
01E0
03C0
07C0
07C0
07C0
07E0
07E0
07E0
07E0
07E0
03E0
03E0
03E0
03E0
03C0
0780
0700
0E00
7800
7800
0E00
0700
0780
03C0
03E0
03E0
03E0
03E0
03E0
07E0
07E0
07E0
07C0
07C0
07C0
07C0
03C0
01E0
00F0
007C
000E
ENDCHAR

STARTCHAR bar
ENCODING 124
SWIDTH 219 0
DWIDTH 11 0
BBX 9 42 2 -8
BITMAP
3E00
3E00
3E00
3E00
3E00
3E00
3E00
3E00
3E00
3E00
3E00
3E00
3E00
3E00
3E00
3E00
3E00
3E00
3E00
3E00
3E00
3E00
3E00
3E00
3E00
3E00
3E00
3E00
3E00
3E00
3E00
3E00
3E00
3E00
3E00
3E00
3E00
3E00
3E00
3E00
3E00
3E00
ENDCHAR

STARTCHAR braceright
ENCODING 125
SWIDTH 396 0
DWIDTH 20 0
BBX 16 44 2 -9
BITMAP
7800
1E00
0F00
0780
03C0
03E0
03E0
03E0
03E0
03E0
07E0
07E0
07C0
07C0
07C0
07C0
07C0
03C0
01E0
00E0
0078
001E
001E
0070
00E0
01E0
03C0
07C0
07C0
07C0
07C0
07E0
07E0
07E0
07E0
03E0
03E0
03E0
03E0
03C0
0780
0F00
3E00
7000
ENDCHAR

STARTCHAR asciitilde
ENCODING 126
SWIDTH 573 0
DWIDTH 29 0
BBX 30 9 0 10
BITMAP
00000010
07F00010
0FFE0030
1FFFC030
3FFFF0F0
3C3FFFE0
3007FFE0
3001FFC0
20003F00
ENDCHAR

STARTCHAR space
ENCODING 160
SWIDTH 250 0
DWIDTH 15 0
BBX 0 0 0 0
BITMAP
ENDCHAR

STARTCHAR quoteleft
ENCODING 161
SWIDTH 271 0
DWIDTH 14 0
BBX 13 15 5 20
BITMAP
0060
01C0
0300
0600
0C00
1C00
3C00
3E00
7F00
7F80
7F80
7F80
7F80
3F80
1F00
ENDCHAR

STARTCHAR quoteright
ENCODING 162
SWIDTH 271 0
DWIDTH 14 0
BBX 14 15 3 20
BITMAP
03C0
07E0
0FF0
0FF0
0FF0
0FF0
07F0
03E0
01E0
01C0
01C0
0380
0600
0C00
3000
ENDCHAR

STARTCHAR sterling
ENCODING 163
SWIDTH 500 0
DWIDTH 25 0
BBX 27 36 0 -1
BITMAP
00003C00
0000FF80
0003C780
000787C0
00078FC0
000F8F80
001F8700
001F0000
003F0000
003F0000
007F0000
007F0000
007E0000
00FE0000
00FE0000
00FE0000
0FFFF000
1FFFF000
1FFFF000
1FFFE000
00F80000
00F80000
01F80000
01F00000
01F00000
01F00000
01E00000
07E00000
1FF00000
3FFC0000
3FFF0200
77FFFC00
63FFFC00
67FFF800
3E3FF000
1C078000
ENDCHAR

STARTCHAR brokenbar
ENCODING 166
SWIDTH 220 0
DWIDTH 11 0
BBX 7 45 2 -11
BITMAP
38
38
38
38
38
38
38
38
38
38
38
38
38
38
38
00
00
00
00
00
00
00
00
00
00
00
00
00
00
00
38
38
38
38
38
38
38
38
38
38
38
38
38
38
38
ENDCHAR

STARTCHAR section
ENCODING 167
SWIDTH 604 0
DWIDTH 30 0
BBX 32 45 1 -10
BITMAP
00007E00
0001FFC0
000781F0
000F00F8
001E0078
001E007C
003E00FC
003E00FC
003F007C
003F0078
003F8000
001FC000
001FE000
001FF800
0037FC00
0063FE00
00E1FF00
01C0FF00
03C07F80
03C01F80
07C00FC0
07C00FC0
07C007C0
07E003C0
07F003C0
07F80380
03FC0380
03FE0300
01FF0700
00FF8600
007FCC00
003FF800
001FF000
0007F000
0003F800
1C01F800
3E01F800
3E00F800
3E00F800
3E00F000
1E00F000
1E01E000
0F03C000
03FF0000
00780000
ENDCHAR

STARTCHAR dieresis
ENCODING 168
SWIDTH 333 0
DWIDTH 17 0
BBX 18 7 4 26
BITMAP
1C0E00
3E1F00
7F1F80
7F3F80
7F1F80
3E1F00
1C0E00
ENDCHAR

STARTCHAR copyright
ENCODING 169
SWIDTH 750 0
DWIDTH 38 0
BBX 40 36 -1 -1
BITMAP
0001FF8000
0007FFF000
001F80FC00
007C001E00
00F0000F00
01C0000380
03800001C0
0700FF08E0
0603E1F870
0E07C07870
0C0F803838
1C1F001838
183F001818
183E00081C
383E00000C
307E00000C
307E00000C
307E00000C
307E00000C
307E00000C
307E00000C
383E00000C
183E00001C
183F000018
1C1F001018
0C0F803038
0E07E06030
0603FF8060
07007E00E0
03800001C0
01C0000380
00F0000700
007C001E00
001F80F800
0007FFE000
0000FF0000
ENDCHAR

STARTCHAR guillemotleft
ENCODING 171
SWIDTH 500 0
DWIDTH 25 0
BBX 25 23 0 1
BITMAP
00180300
00380600
00300C00
00701C00
00E03800
01C07800
03C0F000
0781F000
0F83E000
1F07E000
3F0FC000
7E0FC000
3E0FC000
3F07C000
1F07C000
1F03C000
0F03C000
0F01E000
0701E000
0300E000
03806000
01806000
01802000
ENDCHAR

STARTCHAR logicalnot
ENCODING 172
SWIDTH 667 0
DWIDTH 33 0
BBX 31 17 2 5
BITMAP
3FFFFFF8
3FFFFFF8
3FFFFFF8
3FFFFFF8
3FFFFFF8
000000F8
000000F8
000000F8
000000F8
000000F8
000000F8
000000F8
000000F8
000000F8
000000F8
000000F8
000000F8
ENDCHAR

STARTCHAR hyphen
ENCODING 173
SWIDTH 333 0
DWIDTH 17 0
BBX 17 5 0 9
BITMAP
7FFF00
7FFF00
7FFF00
7FFF00
7FFF00
ENDCHAR

STARTCHAR endash
ENCODING 175
SWIDTH 500 0
DWIDTH 25 0
BBX 29 3 -2 10
BITMAP
3FFFFFE0
3FFFFFE0
3FFFFFE0
ENDCHAR

STARTCHAR degree
ENCODING 176
SWIDTH 396 0
DWIDTH 20 0
BBX 21 17 4 17
BITMAP
01FC00
03FF00
0FFF80
0F8FC0
1E03C0
3C01E0
3C00E0
3800E0
3800E0
3800E0
3C00E0
3C01E0
1E03C0
0F87C0
0FFF80
03FF00
01FC00
ENDCHAR

STARTCHAR plusminus
ENCODING 177
SWIDTH 667 0
DWIDTH 33 0
BBX 31 36 2 0
BITMAP
0007C000
0007C000
0007C000
0007C000
0007C000
0007C000
0007C000
0007C000
0007C000
0007C000
0007C000
3FFFFFF8
3FFFFFF8
3FFFFFF8
3FFFFFF8
3FFFFFF8
0007C000
0007C000
0007C000
0007C000
0007C000
0007C000
0007C000
0007C000
0007C000
0007C000
0007C000
00000000
00000000
00000000
00000000
3FFFFFF8
3FFFFFF8
3FFFFFF8
3FFFFFF8
3FFFFFF8
ENDCHAR

STARTCHAR twosuperior
ENCODING 178
SWIDTH 292 0
DWIDTH 15 0
BBX 17 18 1 17
BITMAP
01F000
03FC00
07FC00
0C3E00
081E00
001E00
001E00
001C00
003C00
007800
007000
00E000
018000
030400
061800
1FF800
3FF000
7FF000
ENDCHAR

STARTCHAR threesuperior
ENCODING 179
SWIDTH 292 0
DWIDTH 15 0
BBX 17 18 1 17
BITMAP
00FC00
01FE00
023E00
001E00
001E00
003C00
007800
01E000
0FF800
00F800
007C00
003C00
003C00
003C00
003800
383000
3E6000
1F8000
ENDCHAR

STARTCHAR acute
ENCODING 180
SWIDTH 333 0
DWIDTH 17 0
BBX 13 9 9 25
BITMAP
0FE0
0FC0
0F80
1F80
1F00
1E00
3C00
3800
3000
ENDCHAR

STARTCHAR dieresisacute
ENCODING 181
SWIDTH 333 0
DWIDTH 17 0
BBX 19 9 4 26
BITMAP
00F800
00F000
00F000
00E000
38E700
7CCF80
7CCF80
7D8F80
398700
ENDCHAR

STARTCHAR afii9936
ENCODING 182
SWIDTH 708 0
DWIDTH 35 0
BBX 34 35 -1 0
BITMAP
0000000100
0001F80300
0003F80700
0003F00F00
0003E01E00
0007C03E00
0007803E00
0007007E00
000E00FE00
000001FE00
000003FE00
000007FE00
000006FE00
00000CFE00
000018FE00
000038FE00
000070FE00
000060FE00
0000C1FC00
000181FC00
000301FC00
000701FC00
000FFFFC00
000FFFFC00
001801FC00
003001FC00
007001FC00
00E001FC00
01C001FC00
018001FC00
030001FC00
070003FC00
0F0003FC00
1F8007FE00
7FE01FFF00
ENDCHAR

STARTCHAR periodcentered
ENCODING 183
SWIDTH 271 0
DWIDTH 14 0
BBX 12 8 2 13
BITMAP
0F00
1F80
3FC0
3FC0
3FC0
3FC0
1F80
0F00
ENDCHAR

STARTCHAR afii9937
ENCODING 184
SWIDTH 714 0
DWIDTH 36 0
BBX 41 34 -2 0
BITMAP
0FE7FFFFFF00
0FC0FFFFFF00
1F807F80FE00
1F007F803E00
1E007F000E00
3C007F000C00
3800FF000400
3000FE000400
0000FE000000
0001FE000000
0001FC008000
0001FC018000
0001FC030000
0003FC070000
0003F81F0000
0003FFFE0000
0007FFFE0000
0007F01E0000
0007F00E0000
0007F00C0000
000FF0040000
000FE0040000
000FE0000000
001FE0000000
001FC0000000
001FC0001000
001FC0006000
003FC000E000
003F8003C000
003F8007C000
007F801FC000
007FC0FF8000
00FFFFFF8000
07FFFFFF0000
ENDCHAR

STARTCHAR afii9938
ENCODING 185
SWIDTH 871 0
DWIDTH 44 0
BBX 51 34 -2 0
BITMAP
0FE3FFFC3FFF80
0FC0FFC007FE00
0F807F8007FC00
1F007F8003F800
1E007F0007F800
1E007F0007F000
3C00FF0007F000
3800FF0007F000
3000FE000FF000
0000FE000FE000
0001FE000FE000
0001FC001FE000
0001FC001FC000
0003FC001FC000
0003FC001FC000
0003F8003FC000
0003FFFFFF8000
0007FFFFFF8000
0007F0007F8000
0007F0007F0000
000FF0007F0000
000FF0007F0000
000FE000FF0000
000FE000FE0000
001FE000FE0000
001FC001FE0000
001FC001FC0000
003FC001FC0000
003F8003FC0000
003F8003FC0000
007F8003F80000
007F8007FC0000
00FFC00FFC0000
07FFF8FFFF8000
ENDCHAR

STARTCHAR afii9939
ENCODING 186
SWIDTH 457 0
DWIDTH 23 0
BBX 31 34 -2 0
BITMAP
0FE3FFF8
0FC07FE0
0F807FC0
1F003F80
1E007F80
1C007F80
3C007F00
38007F00
0000FF00
0000FE00
0000FE00
0001FE00
0001FC00
0001FC00
0001FC00
0003FC00
0003F800
0003F800
0007F800
0007F000
0007F000
000FF000
000FF000
000FE000
000FE000
001FE000
001FC000
001FC000
003FC000
003FC000
003F8000
007FC000
00FFC000
03FFFC00
ENDCHAR

STARTCHAR guillemotright
ENCODING 187
SWIDTH 500 0
DWIDTH 25 0
BBX 26 23 1 1
BITMAP
03006000
03806000
01807000
01C07000
01C07800
01E07800
01E03C00
01F03C00
01F83E00
00F83E00
00FC3F00
00FC3F00
01F83E00
01F07C00
03E0F800
03C0F000
0781E000
0F01C000
0E038000
1C038000
18070000
30060000
200C0000
ENDCHAR

STARTCHAR afii9940
ENCODING 188
SWIDTH 781 0
DWIDTH 39 0
BBX 40 36 1 -1
BITMAP
000001FC00
07E00FFF80
0FC07E0FE0
0FC0F807F0
0F83F003F0
1F07E003F8
1E0FC001FC
1C1FC001FC
383F8001FC
007F0001FE
007F0001FE
00FF0001FE
01FE0001FE
01FE0001FE
03FC0001FE
03FC0003FE
07FC0003FE
07F80003FC
07F80003FC
07F80007FC
0FF80007F8
0FF80007F8
0FF0000FF0
0FF0000FF0
0FF0000FE0
0FF0001FC0
0FF0001FC0
07F0003F80
07F0003F00
07F0007E00
03F800FC00
01F801F800
00FC03E000
007E0F8000
003FFE0000
0007F00000
ENDCHAR

STARTCHAR onehalf
ENCODING 189
SWIDTH 875 0
DWIDTH 44 0
BBX 45 36 0 -1
BITMAP
0003000003C0
007E00000780
013E00000F00
003E00001E00
003C00003C00
003C00007800
007C0000F000
00780001E000
00780003C000
00F800078000
00F0000F0000
00F0001E0000
01F0003C0000
01E000780000
01E000F00000
03E001E00000
03C003C00000
07E007801F00
00000F003FC0
00001E007FC0
00003C00C3E0
0000700081E0
0000E00001E0
0001C00001E0
0003800001C0
0007000003C0
000E00000780
001C00000700
003800000E00
007000001800
00E000003040
01C000006180
03800001FF80
07000003FF00
0E000007FF00
3C0000000000
ENDCHAR

STARTCHAR afii9941
ENCODING 190
SWIDTH 803 0
DWIDTH 40 0
BBX 48 34 -2 0
BITMAP
0FE3FFFC0FFC
0FC0FFE001F8
0F807FC001F0
1F003FC000E0
1E003FC001C0
1C003FC00180
38001FC00300
38001FC00700
00001FE00E00
00000FE00C00
00000FE01800
00000FF03000
000007F07000
000007F0E000
000007F9C000
000003F98000
000003FB0000
000003FE0000
000001FE0000
000003FC0000
000003FC0000
000003F80000
000003F80000
000007F80000
000007F80000
000007F00000
00000FF00000
00000FF00000
00000FE00000
00000FE00000
00001FE00000
00001FE00000
00003FF00000
0003FFFE0000
ENDCHAR

STARTCHAR afii9942
ENCODING 191
SWIDTH 795 0
DWIDTH 40 0
BBX 42 35 -2 0
BITMAP
000003FE0000
0FE01FFFC000
0FC07F03F000
1F81FC01F800
1F07F800FC00
1E0FF0007E00
3C1FE0007F00
383FE0007F00
303FC0007F80
007F80007F80
007F80007F80
00FF80007F80
00FF00007F80
01FF0000FF80
01FF0000FF80
01FF0000FF00
01FE0001FF00
01FE0001FF00
01FE0001FE00
01FE0003FE00
00FE0003FC00
00FE0007F800
007E0007F000
003F000FE000
003F801FC000
020FC07F0400
0203E0780400
060040400C00
070040C01800
07FFC0FFF800
07FFC1FFF800
0FFFC1FFF000
0FFF81FFF000
0FFF83FFF000
1FFF83FFE000
ENDCHAR

STARTCHAR afii9977
ENCODING 192
SWIDTH 271 0
DWIDTH 14 0
BBX 21 35 -1 0
BITMAP
003E00
003C00
003C00
003800
0E39C0
1F33E0
1F33E0
1F63E0
0E61C0
000000
000000
000000
003C00
0FFC00
07FC00
03F800
03F800
03F800
03F000
03F000
07F000
07E000
07E000
0FE000
0FC000
0FC000
1FC000
1F8000
1F8000
1F8800
3F9800
3F3000
3FE000
3FC000
1F8000
ENDCHAR

STARTCHAR afii9793
ENCODING 193
SWIDTH 719 0
DWIDTH 36 0
BBX 34 35 -1 0
BITMAP
0000000100
0000000300
0000000700
0000000F00
0000001F00
0000003F00
0000003F00
0000007E00
000000FE00
000001FE00
000003FE00
000003FE00
000006FE00
00000CFE00
00001CFE00
000038FE00
000030FE00
000060FE00
0000C0FE00
000180FE00
000380FE00
000701FE00
0007FFFC00
000FFFFC00
001801FC00
003801FC00
007001FC00
006001FC00
00C001FC00
018001FC00
038001FC00
070001FC00
0F0003FC00
1F8007FE00
3FE01FFF80
ENDCHAR

STARTCHAR afii9794
ENCODING 194
SWIDTH 667 0
DWIDTH 33 0
BBX 36 34 0 0
BITMAP
003FFFF800
0007FFFF00
0007F87F80
0003F83FC0
0007F81FC0
0007F01FE0
0007F01FE0
000FF01FE0
000FF01FE0
000FE01FC0
000FE03FC0
001FE03F80
001FC07F00
001FC0FE00
003FC3F800
003FFF8000
003FFFC000
003F87F000
007F81F800
007F01FC00
007F00FE00
00FF00FF00
00FE00FF00
00FE00FF00
00FE00FF00
01FE00FF00
01FC01FF00
01FC01FE00
03FC03FE00
03F807FC00
03F80FF800
07F81FF000
0FFFFFC000
7FFFFE0000
ENDCHAR

STARTCHAR afii9796
ENCODING 195
SWIDTH 667 0
DWIDTH 33 0
BBX 39 34 0 0
BITMAP
003FFFFFFC
0007FFFFF8
0007F801F8
0003F800F8
0007F80070
0007F80030
0007F00030
0007F00030
000FF00000
000FE00000
000FE00000
001FE00000
001FE00000
001FC00000
001FC00000
003FC00000
003F800000
003F800000
007F800000
007F000000
007F000000
00FF000000
00FF000000
00FE000000
00FE000000
01FE000000
01FC000000
01FC000000
03FC000000
03F8000000
03F8000000
07F8000000
0FFC000000
7FFF800000
ENDCHAR

STARTCHAR afii9797
ENCODING 196
SWIDTH 667 0
DWIDTH 33 0
BBX 32 35 0 0
BITMAP
00000004
0000000C
0000001C
0000003C
0000007C
0000007C
000000FC
000001FC
000003FC
000007F8
000007F8
00000FF8
00001FF8
00003BF8
000073F8
000063F8
0000C3F8
0001C3F8
000383F8
000703F8
000603F8
000E07F8
001C07F8
003807F0
003007F0
006007F0
00E007F0
01C007F0
038007F0
030007F0
060007F0
0E0007F0
1C0007F0
3FFFFFF0
3FFFFFF0
ENDCHAR

STARTCHAR afii9798
ENCODING 197
SWIDTH 667 0
DWIDTH 33 0
BBX 37 34 0 0
BITMAP
007FFFFFE0
000FFFFFE0
000FF00FE0
0007F003E0
0007F001C0
000FF000C0
000FE000C0
000FE00040
001FE00000
001FC00000
001FC00800
003FC01000
003FC03000
003F807000
003F81E000
007FFFE000
007FFFE000
007F03E000
00FF00C000
00FF00C000
00FE00C000
00FE008000
01FE000000
01FC000000
01FC000000
03FC000200
03F8000600
03F8000C00
03F8003C00
07F800FC00
07F801F800
0FFC0FF800
1FFFFFF000
7FFFFFF000
ENDCHAR

STARTCHAR afii9801
ENCODING 198
SWIDTH 719 0
DWIDTH 36 0
BBX 41 34 0 0
BITMAP
000FFFFFFE00
001FFFFFFE00
001FC007FC00
001E000FF800
0038001FF000
0030003FE000
0020007FC000
006000FF8000
000001FF8000
000003FF0000
000003FE0000
000007FC0000
00000FF80000
00001FF00000
00003FE00000
00007FC00000
0000FF800000
0001FF800000
0003FF000000
0007FE000000
0007FC000000
000FF8000000
001FF0000000
003FE0000000
007FC0000000
00FF80008000
01FF80018000
03FF00070000
07FE000F0000
07FC001E0000
0FF8007E0000
1FF003FE0000
3FFFFFFC0000
7FFFFFFC0000
ENDCHAR

STARTCHAR afii9802
ENCODING 199
SWIDTH 823 0
DWIDTH 41 0
BBX 48 34 -1 0
BITMAP
003FFFE1FFFC
0007FE007FE0
0003FC003FC0
0003F8003FC0
0003F8003F80
0007F8003F80
0007F0007F80
0007F0007F80
0007F0007F00
000FF0007F00
000FE000FF00
000FE000FE00
001FE000FE00
001FC000FE00
001FC001FE00
003FC001FC00
003FFFFFFC00
003FFFFFFC00
003F8003F800
007F8003F800
007F0007F800
007F0007F000
00FF0007F000
00FF0007F000
00FE000FF000
00FE000FE000
01FE000FE000
01FC001FE000
01FC001FC000
03FC001FC000
03FC003FC000
07FC003FC000
0FFC007FE000
3FFF87FFFC00
ENDCHAR

STARTCHAR afii9803
ENCODING 200
SWIDTH 770 0
DWIDTH 39 0
BBX 37 36 4 -1
BITMAP
00000FE000
00007FFC00
0001F07E00
0007C03F80
001F801F80
003F000FC0
007E000FE0
00FE000FE0
01FC000FE0
03F8000FF0
03F8000FF0
07F8000FF0
0FF0000FF0
0FF1008FF0
1FE3018FF0
1FE3831FF0
3FE3FF1FF0
3FC3FF1FE0
3FC7FF1FE0
3FC7FE3FE0
7FC7FE3FC0
7FCE0E3FC0
7F88047F80
7F88047F80
7F80007F00
7F8000FF00
7F8000FE00
3F8001FC00
3F8003F800
3F8003F000
1FC007E000
0FC00FC000
07E01F0000
03F07E0000
01FFF80000
003F800000
ENDCHAR

STARTCHAR afii9804
ENCODING 201
SWIDTH 385 0
DWIDTH 19 0
BBX 26 34 -1 0
BITMAP
007FFF00
000FFC00
0007F800
0007F800
0007F000
0007F000
000FF000
000FE000
000FE000
001FE000
001FC000
001FC000
001FC000
003FC000
003F8000
003F8000
007F8000
007F0000
007F0000
00FF0000
00FF0000
00FE0000
00FE0000
01FE0000
01FC0000
01FC0000
03FC0000
03FC0000
03F80000
03F80000
07F80000
07F80000
0FFC0000
3FFF8000
ENDCHAR

STARTCHAR afii9805
ENCODING 202
SWIDTH 719 0
DWIDTH 36 0
BBX 43 34 -1 0
BITMAP
003FFFC7FF80
0007FE03FC00
0003FC01F000
0003F801E000
0003F8038000
0007F8070000
0007F80E0000
0007F01C0000
0007F0380000
000FF0E00000
000FE1C00000
000FE3800000
001FE7000000
001FCF800000
001FDF800000
001FFF800000
003FFFC00000
003F9FC00000
003F9FC00000
007F9FE00000
007F0FE00000
007F0FE00000
00FF0FF00000
00FF07F00000
00FE07F80000
00FE07F80000
01FE03F80000
01FC03FC0000
01FC01FC0000
03FC01FC0000
03FC01FE0000
03FC01FE0000
07FE03FF0000
3FFF8FFFC000
ENDCHAR

STARTCHAR afii9806
ENCODING 203
SWIDTH 719 0
DWIDTH 36 0
BBX 34 35 -1 0
BITMAP
0000000100
0000000300
0000000700
0000000F00
0000000F00
0000001F00
0000003F00
0000007F00
000000FF00
000001FF00
000001FF00
000003FE00
000006FE00
00000CFE00
00001CFE00
000018FE00
000030FE00
000060FE00
0000C0FE00
0001C0FE00
000380FE00
000300FE00
000600FE00
000C00FE00
001C01FE00
003801FC00
003001FC00
006001FC00
00C001FC00
01C001FC00
038001FC00
070001FC00
0F0003FC00
1F8007FE00
3FE01FFF80
ENDCHAR

STARTCHAR afii9807
ENCODING 204
SWIDTH 990 0
DWIDTH 49 0
BBX 56 34 -1 0
BITMAP
003FFC00001FFC
0007FC00003FF0
0003FC00003FE0
0003FC00007FC0
0003FE0000FFC0
0006FE0000FF80
0006FE0001BF80
0006FE00037F80
0004FE00077F00
000CFE00067F00
000CFE000CFF00
000C7F0018FF00
00187F0038FE00
00187F0030FE00
00187F0061FE00
00107F00C1FC00
00307F01C1FC00
00307F0183FC00
00303F8303FC00
00603F8603F800
00603F8E03F800
00603F8C07F800
00403F9807F000
00C03FB807F000
00C03FB00FF000
00C01FE00FF000
01801FC00FE000
01801FC00FE000
01801F801FE000
03801F001FC000
03801E001FC000
07800E003FC000
1FC00C007FE000
3FF00803FFFC00
ENDCHAR

STARTCHAR afii9808
ENCODING 205
SWIDTH 771 0
DWIDTH 39 0
BBX 46 34 -1 0
BITMAP
003FF8001FF0
000FF8000FC0
0007FC000780
0003FC000700
0007FE000700
0007FE000600
0006FF000600
000CFF000600
000C7F800C00
000C7F800C00
00083FC00C00
00183FC00800
00181FE01800
00181FE01800
00300FF01800
00300FF03000
003007F83000
002007F83000
006003FC2000
006003FC6000
006001FE6000
00C001FE4000
00C000FFC000
00C000FFC000
0080007FC000
0180007F8000
0180003F8000
0180003F8000
0300001F0000
0300001F0000
0700000F0000
0780000F0000
1FC000060000
3FF000060000
ENDCHAR

STARTCHAR afii9809
ENCODING 206
SWIDTH 667 0
DWIDTH 33 0
BBX 39 34 0 0
BITMAP
001FFFFFF8
001FFFFFF8
003FFFFFF8
003FFFFFF0
003FFFFFF0
003FFFFFF0
0070000060
0040000060
0040000020
0080000000
0000000000
0002000800
0002000800
0007001800
0007FFF000
0007FFF000
000FFFF000
000FFFF000
000FFFE000
000C00E000
0018006000
0010004000
0000000000
0800000100
0800000100
0800000200
1800000200
1C00000E00
1FFFFFFC00
3FFFFFFC00
3FFFFFFC00
3FFFFFF800
3FFFFFF800
7FFFFFF800
ENDCHAR

STARTCHAR afii9810
ENCODING 207
SWIDTH 771 0
DWIDTH 39 0
BBX 37 36 4 -1
BITMAP
00000FE000
00007FFC00
0003F07F00
0007C03F80
001F801F80
003F001FC0
007E000FE0
00FE000FE0
01FC000FE0
03F8000FF0
03F8000FF0
07F8000FF0
0FF0000FF0
0FF0000FF0
1FE0000FF0
1FE0001FF0
3FE0001FF0
3FC0001FE0
3FC0001FE0
3FC0003FE0
7FC0003FC0
7FC0003FC0
7F80007F80
7F80007F80
7F80007F00
7F8000FE00
7F8000FE00
3F8001FC00
3F8001F800
3F8003F000
1FC007E000
0FC00FC000
07E01F0000
03F07C0000
01FFF00000
003F800000
ENDCHAR

STARTCHAR afii9811
ENCODING 208
SWIDTH 823 0
DWIDTH 41 0
BBX 48 34 -1 0
BITMAP
003FFFFFFFFC
0007FFFFFFF0
0003FC001FE0
0003FC001FC0
0003F8003FC0
0003F8003F80
0007F8003F80
0007F0003F80
0007F0007F80
000FF0007F00
000FF0007F00
000FE000FF00
001FE000FE00
001FE000FE00
001FC001FE00
001FC001FC00
003FC001FC00
003F8003FC00
003F8003FC00
007F8003F800
007F8003F800
007F0007F800
00FF0007F000
00FF0007F000
00FE000FF000
00FE000FF000
01FE000FE000
01FC001FE000
01FC001FE000
03FC001FC000
03FC001FC000
03FC003FC000
0FFE007FE000
3FFF87FFFC00
ENDCHAR

STARTCHAR afii9813
ENCODING 209
SWIDTH 667 0
DWIDTH 33 0
BBX 36 34 -1 0
BITMAP
007FFFF800
000FFFFE00
0007F87F00
0007F83F80
0007F81FC0
0007F01FE0
0007F01FE0
000FF01FE0
000FE01FE0
000FE01FE0
001FE01FE0
001FE03FC0
001FC03FC0
001FC07F80
003FC07F00
003F80FE00
003F83FC00
007FFFF000
007FFF8000
007F000000
007F000000
00FF000000
00FE000000
00FE000000
01FE000000
01FE000000
01FC000000
01FC000000
03FC000000
03F8000000
03F8000000
07F8000000
0FFC000000
3FFF800000
ENDCHAR

STARTCHAR afii9814
ENCODING 211
SWIDTH 719 0
DWIDTH 36 0
BBX 41 34 -1 0
BITMAP
000FFFFFFE00
000FFFFFFE00
000FF0003E00
0007F0000E00
0007F8000C00
0003F8000400
0003FC000400
0001FC000400
0001FE000000
0000FE000000
0000FF000000
00007F000000
00007F800000
00003F800000
00003F800000
00001F000000
00001E000000
00001C000000
000038000000
000070000000
0000C0000000
000180000000
000300000000
000E00000000
001C00008000
003800018000
007000030000
00E0000F0000
01FFFFFF0000
03FFFFFE0000
07FFFFFE0000
0FFFFFFE0000
1FFFFFFC0000
3FFFFFFC0000
ENDCHAR

STARTCHAR afii9816
ENCODING 212
SWIDTH 667 0
DWIDTH 33 0
BBX 34 34 4 0
BITMAP
03FFFFFF80
03FFFFFF00
03FCFEFF00
07E1FE1F00
0781FC0E00
0701FC0600
0603FC0600
0C03FC0600
0803F80400
0003F80000
0007F80000
0007F00000
0007F00000
000FF00000
000FE00000
000FE00000
000FE00000
001FE00000
001FC00000
001FC00000
003FC00000
003F800000
003F800000
007F800000
007F800000
007F000000
007F000000
00FF000000
00FE000000
00FE000000
01FE000000
01FE000000
03FF000000
3FFFE00000
ENDCHAR

STARTCHAR afii9817
ENCODING 213
SWIDTH 719 0
DWIDTH 36 0
BBX 36 34 6 0
BITMAP
7FFFC0FFC0
0FFE003F80
07FC001F00
07F8001E00
03F8001C00
03FC003800
03FC003000
01FC006000
01FE00E000
01FE01C000
00FE038000
00FF030000
00FF060000
007F0C0000
007F9C0000
007FB80000
003FF00000
003FE00000
003FC00000
003FC00000
003F800000
003F800000
007F800000
007F800000
007F000000
00FF000000
00FF000000
00FE000000
00FE000000
01FE000000
01FE000000
03FE000000
07FE000000
3FFFE00000
ENDCHAR

STARTCHAR afii9818
ENCODING 214
SWIDTH 771 0
DWIDTH 39 0
BBX 38 34 1 0
BITMAP
0000FFFF80
00003FF800
00001FE000
00001FE000
00001FC000
00001FC000
0003FFF800
003FBFFF00
00FC3F8FC0
03F87F87E0
07F07F83F0
0FE07F03F0
1FE0FF03F8
1FC0FF03F8
3FC0FE03F8
3F80FE03F8
7F81FE03F8
7F81FE07F8
7F01FC07F8
7F03FC0FF0
7F03FC0FF0
7F03F81FE0
3F07F81FC0
3F07F83F80
1F87F07F00
0FCFF1FC00
03EFFFF000
00FFFF0000
000FE00000
001FE00000
001FE00000
003FE00000
007FF00000
07FFFE0000
ENDCHAR

STARTCHAR afii9819
ENCODING 215
SWIDTH 719 0
DWIDTH 36 0
BBX 42 34 -1 0
BITMAP
007FFE03FF80
001FFC00FE00
000FF800FC00
0007F800F000
0007F800E000
0003F801C000
0003FC038000
0003FC070000
0001FC0E0000
0001FE1C0000
0001FE380000
0000FE700000
0000FFE00000
0000FFC00000
00007F800000
00007F800000
00003F800000
00003FC00000
00003FC00000
00007FC00000
0000FFE00000
0001CFE00000
00038FE00000
00070FF00000
000E07F00000
001C07F00000
003807F80000
007003F80000
00E003FC0000
01C003FC0000
03C003FC0000
07C003FE0000
1FE007FF0000
3FF81FFF8000
ENDCHAR

STARTCHAR afii9820
ENCODING 216
SWIDTH 823 0
DWIDTH 41 0
BBX 41 35 6 0
BITMAP
780000001F00
3F0FFFF0FE00
1F81FF81FC00
1FC0FF03F800
1FC0FF07F800
1FC0FE07F000
3FC1FE0FF000
3FC1FE0FF000
3FC1FC1FE000
7F81FC1FE000
7F83FC1FE000
7F83F83FE000
7F83F83FC000
7F07F83FC000
7F07F03F8000
3F07F07F8000
3F0FF0FF0000
1F0FF0FE0000
0F8FE1FC0000
07CFE7F00000
01FFFF800000
001FE0000000
001FC0000000
003FC0000000
003FC0000000
003F80000000
007F80000000
007F80000000
007F00000000
007F00000000
00FF00000000
00FE00000000
01FF00000000
03FF80000000
1FFFE0000000
ENDCHAR

STARTCHAR afii9821
ENCODING 217
SWIDTH 771 0
DWIDTH 39 0
BBX 40 35 -1 0
BITMAP
00000FF800
00007FFF00
0001FC0FC0
0007F007E0
001FE003F0
003FC001F8
007F8001FC
00FF8001FC
00FF0001FE
01FE0001FE
01FE0001FE
03FE0001FE
03FC0001FE
07FC0003FE
07FC0003FE
07FC0003FC
07F80007FC
07F80007FC
07F80007F8
07F8000FF8
03F8000FF0
03F8001FE0
01F8001FC0
00FC003F80
00FC007F00
083F01FC10
080F81E010
1801010030
1C01030060
1FFF03FFE0
1FFF07FFE0
3FFF07FFC0
3FFE07FFC0
3FFE0FFFC0
7FFE0FFF80
ENDCHAR

STARTCHAR afii9943
ENCODING 218
SWIDTH 385 0
DWIDTH 19 0
BBX 29 43 0 0
BITMAP
003C07C0
007C07E0
00FE0FE0
00FE0FE0
00FE0FE0
007C07C0
00380380
00000000
00000000
007FFE00
000FF800
000FF000
000FF000
000FE000
000FE000
000FE000
001FE000
001FC000
001FC000
001FC000
003F8000
003F8000
003F8000
007F8000
007F0000
007F0000
007F0000
00FE0000
00FE0000
00FE0000
01FE0000
01FC0000
01FC0000
03FC0000
03FC0000
03F80000
03F80000
07F80000
07F00000
07F00000
0FF00000
1FF80000
7FFF0000
ENDCHAR

STARTCHAR afii9944
ENCODING 219
SWIDTH 719 0
DWIDTH 36 0
BBX 35 43 6 0
BITMAP
000F01F000
001F01F800
003F83F800
003F83F800
003F83F800
001F01F000
000E00E000
0000000000
0000000000
7FFFC0FFC0
0FFE003F00
07FC001E00
07F8001C00
03FC001800
03FC003800
01FC007000
01FC006000
01FE00C000
01FE018000
00FE038000
00FF070000
00FF060000
007F0C0000
007F980000
007FB80000
003FF00000
003FE00000
003FC00000
003FC00000
003F800000
003F800000
007F800000
007F800000
007F000000
007F000000
00FF000000
00FE000000
00FE000000
01FE000000
01FE000000
03FE000000
07FE000000
3FFFE00000
ENDCHAR

STARTCHAR afii9968
ENCODING 220
SWIDTH 500 0
DWIDTH 25 0
BBX 25 36 0 -1
BITMAP
0000FE00
0000FC00
0001F800
0001F000
0001E000
0003E000
0003C000
00038000
00070000
00000000
00000000
00000000
007E0000
01F37E00
03E17E00
07C1FE00
0FC1FC00
0FC1FC00
1F81FC00
1F81FC00
3F81F800
3F01F800
3F03F800
7F03F000
7F03F000
7E07F000
7E07E000
7E07E000
7E07E000
7C0FC000
3C0FC100
3C0FE200
1C1F3600
1C3E3E00
0E7C3C00
03F01C00
ENDCHAR

STARTCHAR afii9969
ENCODING 221
SWIDTH 385 0
DWIDTH 19 0
BBX 23 36 -1 -1
BITMAP
0003F8
0003F0
0007E0
0007E0
0007C0
000780
000F00
000E00
000C00
000000
000000
000000
007F80
01F3E0
03E1F0
03E1F0
07C1F0
07C1F0
07C0E0
078000
078000
038000
01C600
007E00
07C000
1F8000
1F0000
3F0000
3F0000
7E07C0
7E07C0
7E0FC0
3E0FC0
3E0F80
1F1F00
07FC00
ENDCHAR

STARTCHAR afii9970
ENCODING 222
SWIDTH 500 0
DWIDTH 25 0
BBX 27 46 -1 -11
BITMAP
00007F00
0000FE00
0000FC00
0000F800
0001F000
0001E000
0001C000
00038000
00030000
00000000
00000000
00000000
00E00E00
03F03F00
07F87F80
0DF8FF80
11F9FF80
11FB3F80
03FA3F80
03F43F00
03F83F00
07F87F00
07F07E00
07F07E00
0FE07E00
0FE0FE00
0FC0FC00
0FC0FC00
1FC1FC00
1F81F800
1F81F800
3F83F800
3F03F000
3F03F000
3F03F000
0007F000
0007E000
0007E000
000FE000
000FC000
000FC000
000FC000
000FC000
001FC000
001FC000
001F8000
ENDCHAR

STARTCHAR afii9971
ENCODING 223
SWIDTH 271 0
DWIDTH 14 0
BBX 20 36 -1 -1
BITMAP
001FC0
001F80
003F00
003E00
003C00
007800
007000
006000
00C000
000000
000000
000000
003800
1FF800
1FF800
07F800
03F000
03F000
07F000
07E000
07E000
0FE000
0FC000
0FC000
0FC000
1FC000
1F8000
1F8000
3F8000
3F0800
3F1000
3F3000
7F6000
7FC000
3F8000
1E0000
ENDCHAR

STARTCHAR afii9978
ENCODING 224
SWIDTH 438 0
DWIDTH 22 0
BBX 24 36 -1 -1
BITMAP
0007C0
000780
000780
000700
01C738
03E67C
03E67C
03EC7C
01CC38
000000
000000
000000
000000
0FC3C0
1FC0E0
1FE070
1FE038
0FE038
0FE03C
0FE03C
0FE03C
0FC03C
0FC03C
1FC03C
1FC078
1F8078
3F8078
3F80F8
3F00F0
3F01E0
3F01E0
3E03C0
1E0780
1E0F00
0F1E00
03F800
ENDCHAR

STARTCHAR afii9825
ENCODING 225
SWIDTH 500 0
DWIDTH 25 0
BBX 25 24 0 -1
BITMAP
007E0000
01F37E00
03E17E00
07C1FE00
0FC1FC00
0FC1FC00
1F81FC00
1F81FC00
3F81F800
3F01F800
3F03F800
7F03F000
7F03F000
7E07F000
7E07E000
7E07E000
7E07E000
7C0FC000
3C0FC100
3C0FE200
1C1F3600
1C3E3E00
0E7C3C00
03F01C00
ENDCHAR

STARTCHAR afii9826
ENCODING 226
SWIDTH 500 0
DWIDTH 25 0
BBX 32 46 -4 -11
BITMAP
00000FE0
00003CF8
0000F87C
0001F07C
0001F07E
0003F07E
0007E07E
0007E07E
000FE07E
000FE0FC
000FC0FC
000FC0F8
001FC1F8
001FC1F0
001F9BC0
001F9F80
003F9F00
003F83C0
003F03C0
007F03E0
007F03E0
007F03F0
007E03F0
00FE03F0
00FE03F0
00FE07F0
00FC07F0
01FC07E0
01FC07E0
01FC0FE0
01F80FC0
03F81F80
03F83F80
03FC7F00
03F7FE00
07F3F800
07E00000
07E00000
0FE00000
0FC00000
0FC00000
0FC00000
1FC00000
1F800000
3F800000
3F000000
ENDCHAR

STARTCHAR afii9828
ENCODING 227
SWIDTH 438 0
DWIDTH 22 0
BBX 22 33 1 -10
BITMAP
0F01E0
1F81F0
3F83F0
3FC1F0
3FC1F0
31C1F0
20C0F0
00C0E0
00C0E0
00C0E0
00C1C0
00C1C0
00C180
00C300
00C700
00C600
00CC00
00D800
00F000
00E000
00C000
01C000
03C000
078000
0F8000
0F8000
1F8000
3F8000
3F8000
3F0000
7F0000
7F0000
3E0000
ENDCHAR

STARTCHAR afii9829
ENCODING 228
SWIDTH 500 0
DWIDTH 25 0
BBX 27 36 -1 -1
BITMAP
0001F800
0003FE00
00063F80
000C1F80
000C0F80
000C0780
000E0000
00070000
00078000
0007C000
0003E000
0003F000
0001F800
0000FC00
0003FE00
000E7E00
003C7E00
00F83F00
01F03F00
03E03F00
07E03F00
0FC03F00
0FC03F00
1F807F00
1F807F00
3F807E00
3F00FE00
3F00FC00
3F00FC00
3F01F800
3F01F800
3F03F000
1F07E000
1F078000
0F9F0000
03F80000
ENDCHAR

STARTCHAR afii9830
ENCODING 229
SWIDTH 385 0
DWIDTH 19 0
BBX 21 24 -1 -1
BITMAP
007F80
01F3E0
03E1F0
03E1F0
07C1F0
07C1F0
07C0E0
078000
078000
038000
01C600
007E00
07C000
1F8000
1F0000
3F0000
3F0000
7E07C0
7E07C0
7E0FC0
3E0FC0
3E0F80
1F1F00
07FC00
ENDCHAR

STARTCHAR afii9833
ENCODING 230
SWIDTH 438 0
DWIDTH 22 0
BBX 26 45 1 -8
BITMAP
00060000
001C0000
00380F00
00701F00
00703F00
0070FF00
0079FE00
003FFC00
000FF000
000E0000
000C0000
00180000
00300000
00700000
00E00000
01C00000
01C00000
03800000
07800000
07000000
0F000000
0E000000
0E000000
1E000000
1E000000
1E000000
3C000000
3C000000
3E000000
3E000000
3F000000
3FFF8000
3FFFE000
3FFFE000
1FFFF000
0FFFF000
07FFF000
0000F000
00003000
00003000
00782000
00FFC000
00FF8000
00FF0000
003C0000
ENDCHAR

STARTCHAR afii9834
ENCODING 231
SWIDTH 500 0
DWIDTH 25 0
BBX 27 34 -1 -11
BITMAP
00E00E00
03F03F00
07F87F80
0DF8FF80
11F9FF80
11FB3F80
03FA3F80
03F43F00
03F83F00
07F87F00
07F07E00
07F07E00
0FE07E00
0FE0FE00
0FC0FC00
0FC0FC00
1FC1FC00
1F81F800
1F81F800
3F83F800
3F03F000
3F03F000
3F03F000
0007F000
0007E000
0007E000
000FE000
000FC000
000FC000
000FC000
000FC000
001FC000
001FC000
001F8000
ENDCHAR

STARTCHAR afii9835
ENCODING 232
SWIDTH 500 0
DWIDTH 25 0
BBX 28 36 0 -1
BITMAP
0001FC00
00039F00
000F0F80
001E0780
003C07C0
007C07C0
00F807C0
00F807C0
01F007C0
01F00FC0
03F00FC0
03F00FC0
07E00FC0
07E01FC0
07E01F80
0FE01F80
0FC03F80
0FFFFF80
1FC03F80
1F803F00
1F803F00
1F807F00
3F807E00
3F007E00
3F00FC00
3F00FC00
3F00F800
3F01F800
3E01F000
3E01E000
3E03E000
1E03C000
1F078000
0F0E0000
07FC0000
01E00000
ENDCHAR

STARTCHAR afii9836
ENCODING 233
SWIDTH 271 0
DWIDTH 14 0
BBX 15 24 -1 -1
BITMAP
0038
1FF8
1FF8
07F8
03F0
03F0
07F0
07E0
07E0
0FE0
0FC0
0FC0
0FC0
1FC0
1F80
1F80
3F80
3F08
3F10
3F30
7F60
7FC0
3F80
1E00
ENDCHAR

STARTCHAR afii9837
ENCODING 234
SWIDTH 552 0
DWIDTH 28 0
BBX 30 24 -1 -1
BITMAP
001E0070
07FC01F8
0FFC03F8
01FC07F8
01F80CF8
01F81870
03F83000
03F86000
03F0E000
03F1E000
07F3E000
07E7E000
07FFF000
0FE3F000
0FC3F000
0FC3F800
1FC1F800
1F81F800
1F81F820
1F81FC40
3F80FEC0
3F00FF80
3F007F00
00003C00
ENDCHAR

STARTCHAR afii9838
ENCODING 235
SWIDTH 500 0
DWIDTH 25 0
BBX 27 36 -1 -1
BITMAP
0003C000
0007E000
000FE000
000FF000
001CF000
00103000
00103000
00003000
00003000
00003000
00003000
00003000
00003000
00003000
00007000
0000F000
0001F000
0001E000
0003E000
0007E000
000FE000
000FE000
001FE000
003FA000
003F2000
007F2000
00FE2000
01FC2000
01FC2000
03F82080
07F03080
0FF03F80
0FE03F80
1FC03F00
3FC01F00
00000C00
ENDCHAR

STARTCHAR afii9839
ENCODING 236
SWIDTH 552 0
DWIDTH 28 0
BBX 32 33 -4 -11
BITMAP
000FC0FC
000FC0FC
001FC1FC
001F81F8
001F81F8
003F83F8
003F03F0
003F03F0
007F03F0
007E07E0
007E07E0
007E07E0
00FE0FE0
00FC0FC0
00FC0FC0
01FC1FC0
01F83F80
01F83F84
03F8DF88
03FF9F88
03FF0FF0
077E0FE0
073803C0
07000000
0F000000
0F000000
1E000000
1E000000
3E000000
3E000000
3E000000
3E000000
1C000000
ENDCHAR

STARTCHAR afii9840
ENCODING 237
SWIDTH 438 0
DWIDTH 22 0
BBX 22 24 2 -1
BITMAP
0180E0
7F81F0
3FC1F0
1FC1F0
0FC1F0
0FC1F0
0FC1F0
0FE0E0
07E0E0
07E0C0
07E0C0
07E080
07E180
07E300
07E200
07E600
07EC00
07F800
07F000
07E000
07E000
07C000
078000
070000
ENDCHAR

STARTCHAR afii9841
ENCODING 238
SWIDTH 500 0
DWIDTH 25 0
BBX 26 43 1 -9
BITMAP
001C0300
00780F80
00703F80
0070FF00
0039FE00
001FF800
0005C000
00080000
00100000
00300000
00200000
0020FC00
0037FE00
001FFE00
006FFC00
00C3F800
03800000
07000000
0E000000
1C000000
1C000000
38000000
38000000
38000000
78000000
78000000
7C000000
7C000000
7F000000
7FFF0000
7FFFE000
3FFFF000
3FFFF000
1FFFF800
07FFF800
00007800
00001800
00001800
00001000
007E3000
007FE000
007FC000
003F0000
ENDCHAR

STARTCHAR afii9842
ENCODING 239
SWIDTH 500 0
DWIDTH 25 0
BBX 25 24 0 -1
BITMAP
0007F000
003C7C00
00783E00
00F03E00
03E03F00
03E03F00
07C03F00
0FC03F00
1FC07F00
1F807F00
3F807F00
3F807E00
3F007E00
7F00FE00
7F00FC00
7F01FC00
7E01F800
7E01F000
7E03E000
3E03E000
3E078000
1F0F0000
1F1E0000
07F00000
ENDCHAR

STARTCHAR afii9843
ENCODING 240
SWIDTH 552 0
DWIDTH 28 0
BBX 29 23 0 -1
BITMAP
01FFFFF0
0FFFFFE0
1FFFFFE0
1FFFFFE0
3FFFFFC0
3FFFFFC0
70F87C00
60F87800
40F07800
01F0F800
01F0F800
01E0F000
03E1F000
03E1F000
07C1E000
07C3E000
0FC3E000
1F83E0C0
3F83F080
3F83FF80
3F01FF00
3E01FE00
3C00F800
ENDCHAR

STARTCHAR afii9845
ENCODING 241
SWIDTH 500 0
DWIDTH 25 0
BBX 30 34 -4 -11
BITMAP
0000FF80
0003C7C0
0007C3E0
000F83F0
001F83F0
003F83F0
003F03F0
003F03F0
007F03F0
007E07F0
007E07F0
00FE07E0
00FC07E0
00FC0FE0
01FC0FC0
01FC0FC0
01F81F80
01F81F80
03F81F00
03F03E00
03F03C00
07F07800
07F9F000
07EFC000
07E00000
0FE00000
0FC00000
0FC00000
1FC00000
1F800000
1F800000
3F800000
3F000000
3F000000
ENDCHAR

STARTCHAR afii9847
ENCODING 242
SWIDTH 438 0
DWIDTH 22 0
BBX 24 31 -1 -8
BITMAP
000FE0
007FF8
00FFFC
01E1FE
03807E
07003C
0E0000
0C0000
180000
180000
180000
300000
300000
300000
300000
380000
3C0000
3FFC00
3FFF80
1FFFC0
1FFFE0
0FFFE0
07FFE0
0003E0
000060
000060
000040
00F1C0
01FF80
01FF00
00FC00
ENDCHAR

STARTCHAR afii9846
ENCODING 243
SWIDTH 552 0
DWIDTH 28 0
BBX 29 23 0 -1
BITMAP
001FFFF0
007FFFE0
01FFFFE0
03FFFFE0
07FFFFC0
0FFC4000
1FE06000
1FC07000
3F807800
3F007800
3F00FC00
7E00FC00
7E00FC00
7E01FC00
7C01FC00
7C01FC00
7C03F800
3C03F800
3C07F000
1C07E000
0E0FC000
071F0000
03FC0000
ENDCHAR

STARTCHAR afii9848
ENCODING 244
SWIDTH 438 0
DWIDTH 22 0
BBX 24 23 -1 -1
BITMAP
00FFFC
07FFFC
0FFFFC
1FFFF8
1FFFF8
1FFFF8
303E00
303C00
003C00
007C00
007C00
007800
00F800
00F800
00F000
00F000
01F000
01F040
01F8C0
01FFC0
00FF80
00FF00
003C00
ENDCHAR

STARTCHAR afii9849
ENCODING 245
SWIDTH 438 0
DWIDTH 22 0
BBX 23 23 -1 -1
BITMAP
0FC3C0
1FC0E0
1FE070
1FE038
0FE038
0FE03C
0FE03C
0FE03C
0FC03C
0FC03C
1FC03C
1FC078
1F8078
3F8078
3F80F8
3F00F0
3F01E0
3F01E0
3E03C0
1E0780
1E0F00
0F1E00
03F800
ENDCHAR

STARTCHAR afii9850
ENCODING 246
SWIDTH 552 0
DWIDTH 28 0
BBX 29 33 0 -10
BITMAP
001E3F80
00787FC0
01F0FFC0
03E1F7E0
07E1E3E0
07C3C3E0
0FC3C3E0
1FC3C3E0
1F8387E0
1F8787E0
3F8787E0
3F0707C0
3F0F0FC0
3F0F0FC0
3F0E0F80
3E1E1F80
3E1E1F00
3E1E3E00
1E1C3C00
1E3C7800
0E3CF000
0739C000
03FF0000
00780000
00780000
00F00000
00F00000
00F00000
00E00000
01E00000
01E00000
01C00000
03C00000
ENDCHAR

STARTCHAR afii9851
ENCODING 247
SWIDTH 500 0
DWIDTH 25 0
BBX 32 34 -4 -11
BITMAP
001C01FC
007E03FC
007F03F8
00FF07F0
008707F0
00830FE0
00011FC0
00011FC0
00013F80
00017F80
00017F00
0001FE00
0001FE00
0003FC00
0003F800
0007F800
0007F000
000FE000
001FE000
001FC000
003F8000
007F8000
007F8000
00FEC000
01FEC000
01FCC000
03F8C000
07F86000
07F06080
0FE07180
1FE07F80
1FC07F00
3F803F00
7F801C00
ENDCHAR

STARTCHAR afii9852
ENCODING 248
SWIDTH 719 0
DWIDTH 36 0
BBX 35 33 2 -11
BITMAP
3F00F807C0
0F80F01F00
0F80F03F00
0FC1F07E00
0FC1E07E00
0FC1E0FE00
0FC3E1FC00
1FC3C1FC00
1F83C1FC00
1F87C3F800
3F8783F800
3F8783F000
3F0F87F000
3F0F87E000
3F0F0FE000
3E1F0FC000
3E1F0FC000
3E1E1F8000
1E1E1F0000
0F3E3E0000
073C780000
03FDE00000
007F000000
0078000000
0078000000
00F8000000
00F8000000
00F0000000
00F0000000
01F0000000
01E0000000
01E0000000
03E0000000
ENDCHAR

STARTCHAR afii9853
ENCODING 249
SWIDTH 719 0
DWIDTH 36 0
BBX 36 24 0 -1
BITMAP
0003006000
003E003C00
00F8000F00
01F01C0780
03E03E07C0
07E07E07C0
0FC07E07C0
1FC07E07E0
1F807C07E0
3F807C07E0
3F807807E0
3F007807E0
7F00700FE0
7F00600FC0
7E00600FC0
7E00401FC0
7E00C01F80
3E00C03F80
3E01C03F00
3E01407E00
1E03607C00
1F0631F800
07FC1FF000
01E00F8000
ENDCHAR

STARTCHAR afii9975
ENCODING 250
SWIDTH 271 0
DWIDTH 14 0
BBX 20 35 -1 -1
BITMAP
070380
0F87C0
1FCFE0
1FCFE0
1FCFE0
0F87C0
070380
000000
000000
000000
000000
007800
1FF800
1FF800
07F000
03F000
03F000
07E000
07E000
07E000
0FE000
0FC000
0FC000
0FC000
1F8000
1F8000
1F8000
3F8000
3F0000
3F1000
3F2000
7F6000
7FC000
3F8000
1E0000
ENDCHAR

STARTCHAR afii9976
ENCODING 251
SWIDTH 438 0
DWIDTH 22 0
BBX 23 34 -1 -1
BITMAP
00E070
01F0F8
03F9FC
03F9FC
03F9FC
01F0F8
00E070
000000
000000
000000
000000
0FC3C0
1FC0E0
1FE070
1FE038
0FE038
0FE03C
0FE03C
0FE03C
0FC03C
0FC03C
1FC03C
1FC078
1F8078
3F8078
3F80F8
3F00F0
3F01E0
3F01E0
3E03C0
1E0780
1E0F00
0F1E00
03F800
ENDCHAR

STARTCHAR afii9972
ENCODING 252
SWIDTH 500 0
DWIDTH 25 0
BBX 25 36 0 -1
BITMAP
0000FE00
0001FC00
0001F800
0001F000
0003E000
0003C000
00038000
00070000
00060000
00000000
00000000
00000000
0007F000
003C7C00
00783E00
00F03E00
03E03F00
03E03F00
07C03F00
0FC03F00
1FC07F00
1F807F00
3F807F00
3F807E00
3F007E00
7F00FE00
7F00FC00
7F01FC00
7E01F800
7E01F000
7E03E000
3E03E000
3E078000
1F0F0000
1F1E0000
07F00000
ENDCHAR

STARTCHAR afii9973
ENCODING 253
SWIDTH 438 0
DWIDTH 22 0
BBX 23 36 -1 -1
BITMAP
0001FC
0003F8
0003F0
0003E0
0007C0
000780
000700
000E00
000C00
000000
000000
000000
000000
0FC3C0
1FC0E0
1FE070
1FE038
0FE038
0FE03C
0FE03C
0FE03C
0FC03C
0FC03C
1FC03C
1FC078
1F8078
3F8078
3F80F8
3F00F0
3F01E0
3F01E0
3E03C0
1E0780
1E0F00
0F1E00
03F800
ENDCHAR

STARTCHAR afii9974
ENCODING 254
SWIDTH 719 0
DWIDTH 36 0
BBX 36 36 0 -1
BITMAP
000003F800
000007F000
000007E000
000007C000
00000F8000
00000F0000
00000E0000
00001C0000
0000180000
0000000000
0000000000
0000000000
0003006000
003E003C00
00F8000F00
01F01C0780
03E03E07C0
07E07E07C0
0FC07E07C0
1FC07E07E0
1F807C07E0
3F807C07E0
3F807807E0
3F007807E0
7F00700FE0
7F00600FC0
7E00600FC0
7E00401FC0
7E00C01F80
3E00C03F80
3E01C03F00
3E01407E00
1E03607C00
1F0631F800
07FC1FF000
01E00F8000
ENDCHAR
ENDFONT
